<svg xmlns="http://www.w3.org/2000/svg" viewBox="0 0 500 500"><g id="freepik--background-complete--inject-17"><rect y="382.4" width="500" height="0.25" style="fill:#ebebeb"></rect><rect x="416.78" y="398.49" width="33.12" height="0.25" style="fill:#ebebeb"></rect><rect x="322.53" y="401.21" width="8.69" height="0.25" style="fill:#ebebeb"></rect><rect x="396.59" y="389.21" width="19.19" height="0.25" style="fill:#ebebeb"></rect><rect x="52.46" y="390.89" width="43.19" height="0.25" style="fill:#ebebeb"></rect><rect x="104.56" y="390.89" width="6.33" height="0.25" style="fill:#ebebeb"></rect><rect x="131.47" y="395.11" width="93.68" height="0.25" style="fill:#ebebeb"></rect><path d="M237,337.8H43.91a5.71,5.71,0,0,1-5.7-5.71V60.66A5.71,5.71,0,0,1,43.91,55H237a5.71,5.71,0,0,1,5.71,5.71V332.09A5.71,5.71,0,0,1,237,337.8ZM43.91,55.2a5.46,5.46,0,0,0-5.45,5.46V332.09a5.46,5.46,0,0,0,5.45,5.46H237a5.47,5.47,0,0,0,5.46-5.46V60.66A5.47,5.47,0,0,0,237,55.2Z" style="fill:#ebebeb"></path><path d="M453.31,337.8H260.21a5.72,5.72,0,0,1-5.71-5.71V60.66A5.72,5.72,0,0,1,260.21,55h193.1A5.71,5.71,0,0,1,459,60.66V332.09A5.71,5.71,0,0,1,453.31,337.8ZM260.21,55.2a5.47,5.47,0,0,0-5.46,5.46V332.09a5.47,5.47,0,0,0,5.46,5.46h193.1a5.47,5.47,0,0,0,5.46-5.46V60.66a5.47,5.47,0,0,0-5.46-5.46Z" style="fill:#ebebeb"></path><path d="M210.15,114.14a8.82,8.82,0,0,1,11.35-8.44A18.66,18.66,0,0,1,240,84.32a19.36,19.36,0,0,1,3.43.32,16.32,16.32,0,0,1,30.26,8.25H274A15,15,0,1,1,274,123H218.72A8.81,8.81,0,0,1,210.15,114.14Z" style="fill:#f0f0f0"></path><path d="M380.88,243.2a5.63,5.63,0,0,1,5.63-5.63,5.71,5.71,0,0,1,1.62.23,12.22,12.22,0,0,1-.13-1.72,11.93,11.93,0,0,1,11.92-11.93,12.16,12.16,0,0,1,2.2.21,10.42,10.42,0,0,1,19.32,5.27h.17a9.6,9.6,0,1,1,0,19.2H386.36A5.64,5.64,0,0,1,380.88,243.2Z" style="fill:#f0f0f0"></path><path d="M125.66,128.72a5.63,5.63,0,0,1,5.63-5.63,5.77,5.77,0,0,1,1.62.24,12.25,12.25,0,0,1-.13-1.73,11.92,11.92,0,0,1,11.92-11.92,11.4,11.4,0,0,1,2.2.21,10.42,10.42,0,0,1,19.32,5.26h.17a9.61,9.61,0,0,1,0,19.21H131.13A5.62,5.62,0,0,1,125.66,128.72Z" style="fill:#f0f0f0"></path><path d="M65.55,105.46A3.45,3.45,0,0,1,69,102a3.21,3.21,0,0,1,1,.15,7.45,7.45,0,0,1-.08-1.06,7.33,7.33,0,0,1,8.65-7.18A6.38,6.38,0,0,1,90.4,97.15h.1a5.89,5.89,0,1,1,0,11.77H68.9A3.45,3.45,0,0,1,65.55,105.46Z" style="fill:#f0f0f0"></path><path d="M397.19,102.24a2.56,2.56,0,0,1,2.56-2.55,2.52,2.52,0,0,1,.73.1,4.93,4.93,0,0,1-.06-.78,5.42,5.42,0,0,1,5.42-5.42,5.56,5.56,0,0,1,1,.1,4.73,4.73,0,0,1,8.77,2.39h.08a4.36,4.36,0,1,1,0,8.72h-16A2.56,2.56,0,0,1,397.19,102.24Z" style="fill:#f0f0f0"></path><path d="M196.27,188.29a2.55,2.55,0,0,1,2.55-2.55,2.6,2.6,0,0,1,.74.11,5.16,5.16,0,0,1-.06-.79,5.41,5.41,0,0,1,5.41-5.41,5.47,5.47,0,0,1,1,.09,4.74,4.74,0,0,1,8.78,2.39h.07a4.36,4.36,0,1,1,0,8.72h-16A2.56,2.56,0,0,1,196.27,188.29Z" style="fill:#f0f0f0"></path><path d="M241.4,280.13a6.7,6.7,0,0,1-.21-1.36c-.16-2.83-2.86-2.38-5.15-2.76-1.79-.3,3-4.82-.66-6.28a3.15,3.15,0,0,1-1.74-1.22,2,2,0,0,1,.79-2.5,4.79,4.79,0,0,1,2.74-.68c.58-.72.11-1.8-.46-2.53s-1.27-1.56-1.06-2.46c.33-1.36,2.23-1.41,3.61-1.15a10.27,10.27,0,0,0,.74-2.78c.25-.94,1-1.92,1.95-1.8s1.46,1.13,2.34,1.34c1,.24,1.92-.67,2.73-1.35s2.22-1.11,2.77-.21c.34.54.14,1.29.48,1.82.6.92,2,.35,2.91-.31s2.29-1.24,2.91-.33a3.63,3.63,0,0,1,.34.94c.42,1.21,1.72,1.81,2.74,2.58s1.81,2.31,1,3.25c-.43.47-1.17.66-1.38,1.25-.27.74.49,1.4,1.09,1.91,1,.85,1.18,3.39-.14,4.09-.55.29-1.37.38-1.5,1s.43,1,.8,1.39a2.62,2.62,0,0,1-.8,3.9c-.32.15-.71.28-.83.61a1.24,1.24,0,0,0,.08.73,4,4,0,0,1,.13,1.42.65.65,0,0,1-.18.44.66.66,0,0,1-.41.12c-1.91.08-2.83-.59-4,1.07a1.34,1.34,0,0,1-.4.42,1.29,1.29,0,0,1-.52.13c-1.31.11-2.16-.71-3.36-.86-1.66-.22-2,.64-3.47,1.33C243,282.36,241.83,281.69,241.4,280.13Z" style="fill:#e0e0e0"></path><path d="M263.33,277.76a6.7,6.7,0,0,1-.21-1.36c-.17-2.82-2.86-2.38-5.15-2.76-1.79-.3,2.95-4.82-.66-6.28a3.18,3.18,0,0,1-1.74-1.21,2.06,2.06,0,0,1,.78-2.51,4.84,4.84,0,0,1,2.75-.68c.58-.72.11-1.8-.46-2.53s-1.27-1.56-1.06-2.46c.33-1.36,2.23-1.41,3.61-1.15a10.27,10.27,0,0,0,.74-2.78c.25-.94,1-1.92,1.95-1.8s1.45,1.13,2.34,1.34,1.92-.67,2.73-1.35,2.22-1.11,2.77-.21c.34.54.14,1.29.48,1.82.6.92,2,.35,2.91-.31s2.29-1.24,2.91-.33a3.63,3.63,0,0,1,.34.94c.42,1.21,1.72,1.81,2.74,2.58s1.81,2.31,1,3.25c-.43.47-1.17.66-1.38,1.25s.49,1.41,1.09,1.91c1,.85,1.18,3.39-.14,4.09-.55.29-1.37.38-1.5,1s.43,1,.8,1.39a2.62,2.62,0,0,1-.8,3.9c-.32.15-.71.28-.83.61a1.24,1.24,0,0,0,.08.73,4,4,0,0,1,.13,1.42.65.65,0,0,1-.18.44.66.66,0,0,1-.41.12c-1.91.08-2.83-.59-4,1.07a1.34,1.34,0,0,1-.4.42,1.29,1.29,0,0,1-.52.13c-1.31.11-2.17-.71-3.36-.86-1.66-.21-2,.64-3.47,1.33C264.87,280,263.76,279.32,263.33,277.76Z" style="fill:#e0e0e0"></path><path d="M265.44,263.79a6.72,6.72,0,0,1-.2-1.36c-.17-2.82-2.87-2.37-5.16-2.76-1.79-.3,2.95-4.82-.66-6.28a3.13,3.13,0,0,1-1.74-1.21,2.05,2.05,0,0,1,.79-2.5,4.79,4.79,0,0,1,2.74-.69c.59-.72.11-1.79-.46-2.52s-1.27-1.57-1.05-2.47c.32-1.36,2.22-1.41,3.6-1.14a9.66,9.66,0,0,0,.74-2.79c.25-.93,1-1.91,1.95-1.8s1.46,1.13,2.34,1.34c1,.25,1.92-.66,2.73-1.35s2.22-1.11,2.78-.21c.33.54.13,1.29.48,1.82.6.92,2,.35,2.9-.3s2.29-1.24,2.91-.34a3.84,3.84,0,0,1,.34,1c.42,1.2,1.72,1.8,2.74,2.57s1.82,2.31,1,3.26c-.43.46-1.17.65-1.38,1.24-.26.75.49,1.41,1.09,1.92,1,.85,1.18,3.39-.14,4.08-.55.29-1.36.38-1.5,1s.43,1,.8,1.39a2.62,2.62,0,0,1-.8,3.9c-.32.16-.71.28-.82.61a1.19,1.19,0,0,0,.07.74,4,4,0,0,1,.13,1.41.71.71,0,0,1-.17.45.66.66,0,0,1-.42.11c-1.9.09-2.82-.59-4,1.07a1.31,1.31,0,0,1-.39.42,1.22,1.22,0,0,1-.53.13c-1.31.11-2.16-.71-3.36-.86-1.66-.21-2,.65-3.47,1.33C267,266,265.87,265.36,265.44,263.79Z" style="fill:#e0e0e0"></path><path d="M279.89,270.75a6.7,6.7,0,0,1-.21-1.36c-.17-2.82-2.86-2.38-5.15-2.76-1.79-.3,3-4.82-.66-6.28a3.18,3.18,0,0,1-1.74-1.21,2.05,2.05,0,0,1,.78-2.51,4.81,4.81,0,0,1,2.74-.68c.59-.72.11-1.8-.46-2.53s-1.26-1.56-1.05-2.46c.33-1.36,2.23-1.41,3.6-1.15a9.93,9.93,0,0,0,.75-2.78c.25-.94,1-1.92,1.95-1.8s1.45,1.13,2.34,1.34,1.92-.67,2.73-1.35,2.22-1.11,2.77-.21c.34.54.14,1.29.48,1.82.6.92,2,.35,2.91-.3s2.29-1.25,2.91-.34a3.77,3.77,0,0,1,.34.94c.42,1.21,1.72,1.81,2.73,2.58s1.82,2.31,1,3.25c-.42.47-1.16.66-1.37,1.25s.49,1.41,1.09,1.92c1,.84,1.18,3.38-.14,4.08-.56.29-1.37.38-1.5,1s.43,1,.8,1.39a2.62,2.62,0,0,1-.8,3.9c-.32.15-.71.28-.83.61a1.24,1.24,0,0,0,.08.73,4,4,0,0,1,.13,1.42.63.63,0,0,1-.18.44.66.66,0,0,1-.41.12c-1.91.08-2.83-.59-4,1.07a1.34,1.34,0,0,1-.4.42,1.29,1.29,0,0,1-.52.13c-1.31.11-2.17-.71-3.36-.86-1.66-.21-2,.64-3.48,1.33C281.43,273,280.32,272.31,279.89,270.75Z" style="fill:#e0e0e0"></path><path d="M294.49,267.53a6.48,6.48,0,0,1-.21-1.36c-.17-2.82-2.86-2.37-5.15-2.75-1.79-.3,2.95-4.82-.66-6.28a3.15,3.15,0,0,1-1.74-1.22,2,2,0,0,1,.78-2.5,4.89,4.89,0,0,1,2.74-.69c.59-.71.11-1.79-.46-2.52s-1.26-1.56-1.05-2.46c.33-1.37,2.23-1.41,3.6-1.15a9.93,9.93,0,0,0,.75-2.78c.25-.94,1-1.92,2-1.8s1.45,1.13,2.34,1.34,1.92-.67,2.73-1.35,2.22-1.11,2.77-.21c.34.53.14,1.29.48,1.82.6.91,2,.34,2.91-.31s2.29-1.24,2.91-.33a3.63,3.63,0,0,1,.34.94c.42,1.2,1.72,1.8,2.73,2.58s1.82,2.31,1,3.25c-.42.47-1.16.65-1.38,1.25s.5,1.4,1.1,1.91c1,.85,1.18,3.39-.14,4.08-.56.29-1.37.38-1.5,1s.43,1,.8,1.4a2.62,2.62,0,0,1-.8,3.9c-.32.15-.71.27-.83.61a1.24,1.24,0,0,0,.08.73,3.74,3.74,0,0,1,.12,1.41.6.6,0,0,1-.17.45.74.74,0,0,1-.42.12c-1.9.08-2.82-.59-4,1.06a1.24,1.24,0,0,1-.4.42,1.15,1.15,0,0,1-.52.14c-1.31.1-2.17-.71-3.36-.87-1.66-.21-2,.65-3.48,1.34C296,269.77,294.92,269.1,294.49,267.53Z" style="fill:#e0e0e0"></path><path d="M294.68,283.15a4.73,4.73,0,0,1-.16-1.07c-.14-2.22-2.26-1.87-4.06-2.17-1.41-.24,2.32-3.8-.52-5a2.47,2.47,0,0,1-1.37-.95,1.6,1.6,0,0,1,.62-2,3.72,3.72,0,0,1,2.15-.54c.47-.57.09-1.41-.36-2s-1-1.23-.83-1.94c.26-1.07,1.76-1.11,2.84-.9a8.06,8.06,0,0,0,.59-2.19c.19-.74.78-1.51,1.53-1.42s1.15.89,1.85,1.05,1.51-.52,2.14-1.06,1.75-.87,2.19-.16c.26.42.1,1,.38,1.43.47.72,1.59.27,2.28-.24s1.81-1,2.29-.27a2.8,2.8,0,0,1,.27.75c.33.95,1.36,1.42,2.16,2s1.43,1.82.75,2.56c-.33.37-.92.51-1.08,1s.39,1.11.86,1.51c.78.67.93,2.67-.11,3.21-.44.23-1.08.3-1.18.78s.34.77.63,1.1a2.07,2.07,0,0,1-.64,3.07c-.25.12-.55.22-.64.48a.91.91,0,0,0,.06.58,3.2,3.2,0,0,1,.1,1.11.53.53,0,0,1-.14.35.47.47,0,0,1-.33.09c-1.5.07-2.22-.46-3.14.84a1,1,0,0,1-.31.34,1,1,0,0,1-.41.1c-1,.08-1.71-.56-2.65-.68-1.31-.17-1.58.51-2.73,1.05C295.9,284.91,295,284.39,294.68,283.15Z" style="fill:#e0e0e0"></path><path d="M302.86,277.76a6.7,6.7,0,0,1-.21-1.36c-.17-2.82-2.86-2.38-5.15-2.76-1.79-.3,2.95-4.82-.66-6.28a3.18,3.18,0,0,1-1.74-1.21,2.05,2.05,0,0,1,.79-2.51,4.79,4.79,0,0,1,2.74-.68c.58-.72.11-1.8-.46-2.53s-1.27-1.56-1.06-2.46c.33-1.36,2.23-1.41,3.61-1.15a10.27,10.27,0,0,0,.74-2.78c.25-.94,1-1.92,2-1.8s1.45,1.13,2.34,1.34,1.92-.67,2.73-1.35,2.22-1.11,2.77-.21c.34.54.14,1.29.48,1.82.6.92,2,.35,2.91-.31s2.29-1.24,2.91-.33a3.63,3.63,0,0,1,.34.94c.42,1.21,1.72,1.81,2.74,2.58s1.81,2.31,1,3.25c-.43.47-1.17.66-1.38,1.25s.49,1.41,1.09,1.91c1,.85,1.18,3.39-.14,4.09-.55.29-1.37.38-1.5,1s.43,1,.8,1.39a2.62,2.62,0,0,1-.8,3.9c-.32.15-.71.28-.83.61a1.24,1.24,0,0,0,.08.73,4,4,0,0,1,.13,1.42.65.65,0,0,1-.18.44.66.66,0,0,1-.41.12c-1.91.08-2.83-.59-4,1.07a1.34,1.34,0,0,1-.4.42,1.29,1.29,0,0,1-.52.13c-1.31.11-2.17-.71-3.36-.86-1.66-.21-2,.64-3.47,1.33C304.4,280,303.29,279.32,302.86,277.76Z" style="fill:#e0e0e0"></path><path d="M279.89,253.57a6.7,6.7,0,0,1-.21-1.36c-.17-2.82-2.86-2.38-5.15-2.76-1.79-.3,3-4.82-.66-6.28a3.18,3.18,0,0,1-1.74-1.21,2.05,2.05,0,0,1,.78-2.51,4.89,4.89,0,0,1,2.74-.68c.59-.72.11-1.8-.46-2.53s-1.26-1.56-1.05-2.46c.33-1.36,2.23-1.41,3.6-1.15a9.93,9.93,0,0,0,.75-2.78c.25-.93,1-1.92,1.95-1.8s1.45,1.13,2.34,1.34,1.92-.67,2.73-1.35,2.22-1.11,2.77-.21c.34.54.14,1.29.48,1.82.6.92,2,.35,2.91-.3s2.29-1.24,2.91-.34a3.91,3.91,0,0,1,.34.94c.42,1.21,1.72,1.81,2.73,2.58s1.82,2.31,1,3.26c-.42.46-1.16.65-1.37,1.24-.27.74.49,1.41,1.09,1.92,1,.85,1.18,3.38-.14,4.08-.56.29-1.37.38-1.5,1s.43,1,.8,1.39a2.62,2.62,0,0,1-.8,3.9c-.32.15-.71.28-.83.61a1.27,1.27,0,0,0,.08.74,3.94,3.94,0,0,1,.13,1.41.63.63,0,0,1-.18.44.66.66,0,0,1-.41.12c-1.91.09-2.83-.59-4,1.07a1.34,1.34,0,0,1-.4.42,1.14,1.14,0,0,1-.52.13c-1.31.11-2.17-.71-3.36-.86-1.66-.21-2,.64-3.48,1.33C281.43,255.8,280.32,255.14,279.89,253.57Z" style="fill:#e0e0e0"></path><path d="M261.13,254.53a6.72,6.72,0,0,1-.2-1.36c-.17-2.82-2.87-2.38-5.16-2.76-1.79-.3,3-4.82-.66-6.28a3.22,3.22,0,0,1-1.74-1.21,2.07,2.07,0,0,1,.79-2.51,4.79,4.79,0,0,1,2.74-.68c.59-.72.11-1.8-.46-2.53s-1.27-1.56-1.05-2.46c.32-1.36,2.23-1.41,3.6-1.15a9.59,9.59,0,0,0,.74-2.78c.25-.94,1-1.92,1.95-1.8s1.46,1.13,2.34,1.34c1,.24,1.92-.67,2.73-1.35s2.22-1.11,2.78-.21c.33.54.13,1.29.48,1.82.6.92,2,.35,2.9-.3s2.29-1.25,2.91-.34a3.91,3.91,0,0,1,.34.94c.42,1.21,1.72,1.81,2.74,2.58s1.82,2.31,1,3.25c-.43.47-1.17.66-1.38,1.25s.49,1.41,1.09,1.92c1,.84,1.18,3.38-.14,4.08-.55.29-1.36.38-1.5,1s.43,1,.8,1.39a2.62,2.62,0,0,1-.8,3.9c-.32.15-.71.28-.82.61a1.19,1.19,0,0,0,.07.74,3.94,3.94,0,0,1,.13,1.41.51.51,0,0,1-.59.56c-1.9.08-2.82-.59-4,1.07a1.31,1.31,0,0,1-.39.42,1.38,1.38,0,0,1-.53.13c-1.31.11-2.16-.71-3.36-.86-1.66-.21-2,.64-3.47,1.33C262.68,256.76,261.56,256.09,261.13,254.53Z" style="fill:#e0e0e0"></path><path d="M249.74,262.2a6.59,6.59,0,0,1-.21-1.36c-.16-2.82-2.86-2.37-5.15-2.75-1.79-.3,3-4.83-.66-6.28a3.2,3.2,0,0,1-1.74-1.22,2.05,2.05,0,0,1,.79-2.5,4.87,4.87,0,0,1,2.74-.69c.58-.71.11-1.79-.46-2.52s-1.27-1.56-1.06-2.47c.33-1.36,2.23-1.41,3.61-1.14a10.24,10.24,0,0,0,.74-2.79c.25-.93,1-1.91,1.95-1.79s1.46,1.13,2.34,1.34c1,.24,1.92-.67,2.73-1.35s2.22-1.11,2.77-.21c.34.53.14,1.28.48,1.81.6.92,2,.35,2.91-.3s2.29-1.24,2.91-.34a3.84,3.84,0,0,1,.34,1c.42,1.2,1.72,1.8,2.74,2.58s1.81,2.31,1,3.25c-.43.47-1.17.65-1.38,1.25s.49,1.4,1.09,1.91c1,.85,1.18,3.39-.14,4.08-.55.29-1.37.38-1.5,1s.43,1,.8,1.4a2.62,2.62,0,0,1-.8,3.9c-.32.15-.71.27-.83.6a1.27,1.27,0,0,0,.08.74,4,4,0,0,1,.13,1.41.65.65,0,0,1-.18.45.73.73,0,0,1-.41.12c-1.91.08-2.83-.59-4,1.06a1.31,1.31,0,0,1-.39.42,1.09,1.09,0,0,1-.53.13c-1.31.11-2.16-.7-3.36-.86-1.66-.21-2,.65-3.47,1.34C251.29,264.44,250.17,263.77,249.74,262.2Z" style="fill:#e0e0e0"></path><path d="M253.19,271.9s4.77,6.74,6.41,8.88,9.86,15.44,11,24.24c.11.94.23,1.75.35,2.46-3.54,23.32-3,66-2.86,73.29h11.2c.1-8.24,1.05-83.53,1.4-85.83s5.05-11.7,12.28-15.51S306.43,263,306.43,263h-2.31s-4.27,7.72-10.35,12a23.61,23.61,0,0,1-2.73,1.62A38.76,38.76,0,0,0,288.62,263l-1.24,1.15c1.68,6.88,1.45,11.28.95,13.81A25.31,25.31,0,0,0,282,282.2c-6.3-8.2-9.85-26.95-9.85-26.95l-1.61.88a94.6,94.6,0,0,0,2.08,11.5c1.18,4.86,4.66,14,6.28,18.14a43.14,43.14,0,0,0-4.77,8.94,3.29,3.29,0,0,0-.61-.73c-4.1-3.71-11.82-21.25-11.82-21.25-1.87-4.08,1-14.79,1-14.79h-2.15l-1,9.36-5.42-5.91-1,.82,5.75,7.39,3,9.37-7.72-8.54Z" style="fill:#e0e0e0"></path><path d="M427.09,196.54a12.66,12.66,0,0,0,.38-2.49c.3-5.16,5.23-4.34,9.43-5,3.27-.55-5.4-8.83,1.21-11.5,1.22-.5,2.56-1.06,3.18-2.22.83-1.54,0-3.57-1.44-4.58a8.82,8.82,0,0,0-5-1.26c-1.08-1.31-.2-3.28.84-4.62s2.32-2.86,1.92-4.51c-.59-2.49-4.07-2.58-6.59-2.1-.93-1.5-.91-3.38-1.36-5.09s-1.81-3.51-3.57-3.3-2.66,2.07-4.28,2.46c-1.89.44-3.52-1.23-5-2.48s-4.06-2-5.08-.38c-.61,1-.24,2.36-.88,3.33-1.09,1.68-3.7.64-5.31-.55s-4.19-2.28-5.33-.62a7.14,7.14,0,0,0-.63,1.73c-.76,2.2-3.15,3.3-5,4.72s-3.33,4.22-1.76,6c.78.85,2.14,1.2,2.53,2.28.48,1.36-.91,2.57-2,3.51-1.82,1.55-2.15,6.2.26,7.47,1,.53,2.5.69,2.75,1.81s-.79,1.78-1.47,2.55a4.8,4.8,0,0,0,1.47,7.14c.58.28,1.29.51,1.51,1.11a2.34,2.34,0,0,1-.14,1.35,6.86,6.86,0,0,0-.23,2.59,1.22,1.22,0,0,0,.31.81,1.29,1.29,0,0,0,.77.22c3.48.15,5.16-1.08,7.29,1.95a2.56,2.56,0,0,0,.73.77,2.23,2.23,0,0,0,1,.24c2.39.2,4-1.3,6.15-1.58,3-.38,3.68,1.18,6.36,2.44C424.26,200.63,426.3,199.41,427.09,196.54Z" style="fill:#ebebeb"></path><path d="M387,192.2a12.55,12.55,0,0,0,.38-2.48c.3-5.17,5.23-4.35,9.43-5.05,3.27-.55-5.4-8.83,1.2-11.5a5.76,5.76,0,0,0,3.19-2.22c.83-1.54,0-3.57-1.44-4.58a8.84,8.84,0,0,0-5-1.26c-1.08-1.31-.2-3.28.84-4.62s2.32-2.86,1.92-4.51c-.59-2.49-4.07-2.58-6.59-2.09-.93-1.51-.91-3.39-1.36-5.1s-1.81-3.51-3.57-3.29-2.66,2.07-4.29,2.45c-1.88.44-3.51-1.22-5-2.47s-4.06-2-5.08-.39c-.61,1-.24,2.36-.88,3.33-1.09,1.68-3.7.64-5.31-.55s-4.19-2.27-5.33-.62a6.88,6.88,0,0,0-.63,1.73c-.76,2.2-3.15,3.3-5,4.72s-3.33,4.23-1.76,6c.77.85,2.14,1.2,2.52,2.29.49,1.35-.9,2.57-2,3.5-1.82,1.55-2.15,6.2.26,7.47,1,.53,2.5.7,2.75,1.81s-.79,1.78-1.47,2.55a4.79,4.79,0,0,0,1.47,7.14c.58.28,1.29.51,1.51,1.12a2.31,2.31,0,0,1-.14,1.34,6.86,6.86,0,0,0-.23,2.59,1.11,1.11,0,0,0,.31.81,1.22,1.22,0,0,0,.77.22c3.48.15,5.16-1.08,7.29,1.95a2.44,2.44,0,0,0,.73.77,2.1,2.1,0,0,0,1,.24c2.39.2,4-1.3,6.15-1.57,3-.39,3.68,1.18,6.36,2.43C384.12,196.29,386.16,195.07,387,192.2Z" style="fill:#ebebeb"></path><path d="M383.08,166.64a12.66,12.66,0,0,0,.38-2.49c.3-5.16,5.23-4.34,9.43-5.05,3.27-.54-5.4-8.82,1.21-11.49,1.22-.5,2.56-1.06,3.18-2.22.83-1.54,0-3.57-1.44-4.58a8.82,8.82,0,0,0-5-1.26c-1.08-1.31-.2-3.28.84-4.62s2.32-2.86,1.93-4.51c-.6-2.49-4.08-2.58-6.6-2.1-.93-1.5-.91-3.38-1.36-5.1s-1.81-3.5-3.57-3.29-2.66,2.07-4.28,2.45c-1.89.45-3.52-1.22-5-2.47s-4.06-2-5.08-.38c-.61,1-.24,2.36-.88,3.33-1.09,1.68-3.7.64-5.31-.56s-4.19-2.27-5.33-.61a7.06,7.06,0,0,0-.63,1.72c-.76,2.21-3.14,3.31-5,4.72s-3.33,4.23-1.76,6c.78.85,2.14,1.2,2.53,2.28.48,1.36-.91,2.57-2,3.51-1.82,1.55-2.15,6.2.26,7.47,1,.53,2.5.69,2.75,1.81s-.79,1.78-1.47,2.55a4.8,4.8,0,0,0,1.47,7.14c.58.28,1.29.51,1.51,1.11a2.34,2.34,0,0,1-.14,1.35,7.07,7.07,0,0,0-.23,2.59,1.24,1.24,0,0,0,.31.81,1.28,1.28,0,0,0,.77.21c3.48.16,5.16-1.07,7.29,2a2.56,2.56,0,0,0,.73.77,2.27,2.27,0,0,0,1,.24c2.39.2,4-1.3,6.15-1.58,3-.39,3.68,1.18,6.36,2.44C380.25,170.73,382.29,169.51,383.08,166.64Z" style="fill:#ebebeb"></path><path d="M356.64,179.37a11.88,11.88,0,0,0,.37-2.49c.31-5.16,5.24-4.34,9.44-5,3.27-.55-5.4-8.83,1.2-11.5a5.76,5.76,0,0,0,3.19-2.22c.83-1.54,0-3.57-1.44-4.58a8.84,8.84,0,0,0-5-1.26c-1.08-1.31-.21-3.28.84-4.62s2.32-2.86,1.92-4.51c-.59-2.49-4.08-2.58-6.59-2.09-.93-1.51-.91-3.39-1.36-5.1s-1.81-3.51-3.57-3.29-2.67,2.06-4.29,2.45c-1.88.44-3.51-1.22-5-2.47s-4.06-2-5.08-.39c-.61,1-.24,2.36-.88,3.33-1.1,1.68-3.7.64-5.31-.55s-4.19-2.28-5.33-.62a6.88,6.88,0,0,0-.63,1.73c-.76,2.2-3.15,3.3-5,4.72s-3.33,4.23-1.76,5.95c.77.85,2.14,1.2,2.52,2.28.48,1.36-.9,2.58-2,3.51-1.82,1.55-2.15,6.2.26,7.47,1,.53,2.5.7,2.75,1.81s-.8,1.78-1.47,2.55a4.79,4.79,0,0,0,1.47,7.14c.58.28,1.29.51,1.51,1.11a2.34,2.34,0,0,1-.14,1.35,7.08,7.08,0,0,0-.24,2.59,1.16,1.16,0,0,0,.32.81,1.24,1.24,0,0,0,.76.22c3.49.15,5.17-1.08,7.3,2a2.53,2.53,0,0,0,.72.77,2.28,2.28,0,0,0,1,.24c2.39.2,4-1.3,6.15-1.57,3-.39,3.68,1.17,6.36,2.43C353.81,183.46,355.85,182.24,356.64,179.37Z" style="fill:#ebebeb"></path><path d="M329.91,173.49a12.54,12.54,0,0,0,.38-2.49c.31-5.16,5.24-4.34,9.43-5,3.28-.55-5.4-8.83,1.21-11.5a5.81,5.81,0,0,0,3.19-2.22c.83-1.54,0-3.57-1.44-4.58a8.87,8.87,0,0,0-5-1.26c-1.08-1.31-.2-3.28.84-4.62s2.32-2.86,1.93-4.51c-.6-2.49-4.08-2.58-6.6-2.1-.93-1.5-.91-3.38-1.36-5.09s-1.81-3.51-3.57-3.3-2.66,2.07-4.28,2.46c-1.89.44-3.52-1.23-5-2.48s-4.07-2-5.08-.38c-.61,1-.25,2.36-.88,3.33-1.1,1.68-3.7.64-5.32-.55s-4.19-2.28-5.33-.62a7.12,7.12,0,0,0-.62,1.73c-.77,2.2-3.15,3.3-5,4.72s-3.33,4.22-1.76,5.95c.78.85,2.14,1.2,2.53,2.28.48,1.36-.91,2.58-2,3.51-1.83,1.55-2.16,6.2.25,7.47,1,.53,2.5.7,2.75,1.81s-.79,1.78-1.46,2.55a4.8,4.8,0,0,0,1.46,7.14c.58.28,1.3.51,1.51,1.11a2.26,2.26,0,0,1-.14,1.35,7.29,7.29,0,0,0-.23,2.59,1.2,1.2,0,0,0,.31.81,1.29,1.29,0,0,0,.77.22c3.49.15,5.17-1.08,7.29,1.95a2.56,2.56,0,0,0,.73.77,2.27,2.27,0,0,0,1,.24c2.4.2,4-1.3,6.15-1.58,3-.38,3.68,1.18,6.36,2.44C327.08,177.58,329.12,176.36,329.91,173.49Z" style="fill:#ebebeb"></path><path d="M329.56,202.08a9.18,9.18,0,0,0,.3-2c.24-4.07,4.12-3.42,7.43-4,2.58-.43-4.25-7,.95-9.06a4.6,4.6,0,0,0,2.51-1.75,3,3,0,0,0-1.14-3.6,6.88,6.88,0,0,0-3.94-1c-.85-1-.16-2.59.66-3.64s1.82-2.25,1.51-3.55c-.47-2-3.21-2-5.19-1.65-.73-1.19-.72-2.67-1.07-4s-1.43-2.76-2.81-2.59-2.1,1.63-3.38,1.93c-1.48.35-2.76-1-3.93-1.94s-3.19-1.6-4-.31c-.48.78-.19,1.86-.69,2.63-.86,1.32-2.91.5-4.18-.44s-3.3-1.79-4.2-.49a5.81,5.81,0,0,0-.49,1.36c-.6,1.74-2.48,2.61-3.94,3.72s-2.62,3.33-1.39,4.69c.61.67,1.69.94,2,1.8.38,1.06-.71,2-1.58,2.76-1.43,1.22-1.69,4.88.21,5.88.8.42,2,.55,2.16,1.43s-.62,1.4-1.15,2a3.79,3.79,0,0,0,1.15,5.63c.46.21,1,.39,1.19.87a1.78,1.78,0,0,1-.11,1.06,5.41,5.41,0,0,0-.18,2,1,1,0,0,0,.24.64,1,1,0,0,0,.61.17c2.74.12,4.07-.85,5.74,1.54a1.93,1.93,0,0,0,.57.6,1.68,1.68,0,0,0,.76.19c1.89.16,3.12-1,4.84-1.24,2.4-.3,2.9.93,5,1.92C327.34,205.3,328.94,204.34,329.56,202.08Z" style="fill:#ebebeb"></path><path d="M314.59,192.2a12.55,12.55,0,0,0,.38-2.48c.3-5.17,5.23-4.35,9.43-5.05,3.27-.55-5.4-8.83,1.2-11.5a5.72,5.72,0,0,0,3.19-2.22c.83-1.54,0-3.57-1.44-4.58a8.84,8.84,0,0,0-5-1.26c-1.08-1.31-.2-3.28.84-4.62s2.32-2.86,1.92-4.51c-.59-2.49-4.07-2.58-6.59-2.09-.93-1.51-.91-3.39-1.36-5.1s-1.81-3.51-3.57-3.29-2.66,2.07-4.29,2.45c-1.88.44-3.51-1.22-5-2.47s-4.06-2-5.08-.39c-.61,1-.24,2.36-.88,3.33-1.09,1.68-3.7.64-5.31-.55s-4.19-2.27-5.33-.62a7.3,7.3,0,0,0-.63,1.73c-.76,2.2-3.15,3.3-5,4.72s-3.33,4.23-1.76,6c.78.85,2.14,1.2,2.53,2.29.48,1.35-.91,2.57-2,3.5-1.82,1.55-2.15,6.2.26,7.47,1,.53,2.5.7,2.75,1.81s-.79,1.78-1.47,2.55a4.8,4.8,0,0,0,1.47,7.14c.58.28,1.29.51,1.51,1.12a2.31,2.31,0,0,1-.14,1.34,6.86,6.86,0,0,0-.23,2.59,1.15,1.15,0,0,0,.31.81,1.22,1.22,0,0,0,.77.22c3.48.15,5.16-1.08,7.29,1.95a2.56,2.56,0,0,0,.73.77,2.1,2.1,0,0,0,1,.24c2.39.2,4-1.3,6.15-1.57,3-.39,3.68,1.18,6.36,2.43C311.76,196.29,313.8,195.07,314.59,192.2Z" style="fill:#ebebeb"></path><path d="M356.64,147.93a12,12,0,0,0,.37-2.49c.31-5.16,5.24-4.35,9.44-5.05,3.27-.54-5.4-8.82,1.2-11.49a5.86,5.86,0,0,0,3.19-2.22c.83-1.55,0-3.58-1.44-4.59a8.83,8.83,0,0,0-5-1.25c-1.08-1.31-.21-3.29.84-4.62s2.32-2.86,1.92-4.51c-.59-2.49-4.08-2.58-6.59-2.1-.93-1.5-.91-3.39-1.36-5.1s-1.81-3.5-3.57-3.29-2.67,2.07-4.29,2.45c-1.88.45-3.51-1.22-5-2.47s-4.06-2-5.08-.38c-.61,1-.24,2.36-.88,3.33-1.1,1.68-3.7.63-5.31-.56s-4.19-2.27-5.33-.61a6.67,6.67,0,0,0-.63,1.72c-.76,2.21-3.15,3.31-5,4.72s-3.33,4.23-1.76,6c.77.85,2.14,1.19,2.52,2.28.48,1.36-.9,2.57-2,3.5-1.82,1.56-2.15,6.2.26,7.47,1,.54,2.5.7,2.75,1.82s-.8,1.78-1.47,2.55a4.79,4.79,0,0,0,1.47,7.14c.58.28,1.29.5,1.51,1.11a2.34,2.34,0,0,1-.14,1.35,7,7,0,0,0-.24,2.58,1.2,1.2,0,0,0,.32.82,1.23,1.23,0,0,0,.76.21c3.49.16,5.17-1.08,7.3,2a2.53,2.53,0,0,0,.72.77,2.28,2.28,0,0,0,1,.24c2.39.19,4-1.3,6.15-1.58,3-.39,3.68,1.18,6.36,2.44C353.81,152,355.85,150.8,356.64,147.93Z" style="fill:#ebebeb"></path><path d="M391,149.68a12.55,12.55,0,0,0,.38-2.48c.3-5.17,5.23-4.35,9.43-5,3.27-.55-5.4-8.83,1.2-11.5a5.72,5.72,0,0,0,3.19-2.22c.83-1.54,0-3.57-1.44-4.58a8.84,8.84,0,0,0-5-1.26c-1.08-1.31-.2-3.28.84-4.62s2.32-2.86,1.92-4.51c-.59-2.49-4.07-2.58-6.59-2.09-.93-1.51-.91-3.39-1.36-5.1s-1.81-3.51-3.57-3.29-2.66,2.07-4.29,2.45c-1.88.44-3.51-1.22-5-2.47s-4.06-2-5.08-.39c-.61,1-.24,2.36-.88,3.33-1.09,1.68-3.7.64-5.31-.55s-4.19-2.27-5.33-.62a7.3,7.3,0,0,0-.63,1.73c-.76,2.2-3.15,3.3-5,4.72s-3.33,4.23-1.76,5.95c.78.85,2.14,1.2,2.52,2.29.49,1.35-.9,2.57-2,3.5-1.82,1.55-2.15,6.2.26,7.47,1,.53,2.5.7,2.75,1.81s-.79,1.78-1.47,2.55a4.8,4.8,0,0,0,1.47,7.14c.58.28,1.29.51,1.51,1.12a2.31,2.31,0,0,1-.14,1.34,6.86,6.86,0,0,0-.23,2.59,1.15,1.15,0,0,0,.31.81,1.22,1.22,0,0,0,.77.22c3.48.15,5.16-1.08,7.29,1.95a2.44,2.44,0,0,0,.73.77,2.1,2.1,0,0,0,1,.24c2.39.2,4-1.3,6.15-1.57,3-.39,3.68,1.18,6.36,2.43C388.14,153.77,390.18,152.55,391,149.68Z" style="fill:#ebebeb"></path><path d="M411.82,163.73a11.85,11.85,0,0,0,.38-2.49c.31-5.16,5.24-4.34,9.43-5,3.28-.55-5.4-8.83,1.21-11.5a5.76,5.76,0,0,0,3.19-2.22c.83-1.54,0-3.57-1.44-4.58a8.87,8.87,0,0,0-5-1.26c-1.08-1.31-.2-3.28.84-4.62s2.32-2.86,1.93-4.51c-.6-2.49-4.08-2.58-6.6-2.09-.93-1.51-.91-3.39-1.36-5.1s-1.81-3.51-3.56-3.29-2.67,2.07-4.29,2.45c-1.89.44-3.52-1.22-5-2.47s-4.07-2-5.08-.39c-.61,1-.25,2.36-.88,3.33-1.1,1.68-3.7.64-5.32-.55s-4.19-2.28-5.33-.62a7.27,7.27,0,0,0-.62,1.73c-.77,2.2-3.15,3.3-5,4.72s-3.33,4.23-1.76,6c.78.85,2.14,1.2,2.53,2.29.48,1.35-.91,2.57-2,3.5-1.83,1.55-2.16,6.2.25,7.47,1,.53,2.5.7,2.75,1.81s-.79,1.78-1.46,2.55a4.8,4.8,0,0,0,1.46,7.14c.58.28,1.3.51,1.51,1.12a2.23,2.23,0,0,1-.14,1.34,7.29,7.29,0,0,0-.23,2.59,1.2,1.2,0,0,0,.31.81,1.22,1.22,0,0,0,.77.22c3.49.15,5.17-1.08,7.29,1.95a2.56,2.56,0,0,0,.73.77,2.13,2.13,0,0,0,1,.24c2.4.2,4-1.3,6.15-1.57,3-.39,3.69,1.18,6.36,2.43C409,167.82,411,166.6,411.82,163.73Z" style="fill:#ebebeb"></path><path d="M405.5,181.49s-8.72,12.33-11.73,16.24-18,28.27-20.09,44.38c-.22,1.72-.43,3.2-.64,4.5,6.47,42.69,5.45,120.79,5.22,134.16H357.77c-.18-15.08-1.93-152.91-2.57-157.12-.68-4.45-9.24-21.41-22.48-28.37s-24.66-30-24.66-30h4.22s7.81,14.14,18.94,22a42.46,42.46,0,0,0,5,3c-.4-12.73,4.42-24.92,4.42-24.92l2.28,2.11c-3.08,12.59-2.67,20.65-1.74,25.28a45.75,45.75,0,0,1,11.5,7.7c11.55-15,18-49.33,18-49.33l2.95,1.61a175,175,0,0,1-3.81,21c-2.17,8.89-8.53,25.61-11.49,33.21a79.3,79.3,0,0,1,8.72,16.36,6.82,6.82,0,0,1,1.11-1.33c7.52-6.8,21.65-38.91,21.65-38.91,3.42-7.47-1.8-27.07-1.8-27.07H392l1.77,17.14,9.93-10.82,1.8,1.5L395,177.28l-5.42,17.15,14.14-15.64Z" style="fill:#e6e6e6"></path><path d="M167.5,251a9,9,0,0,0,.26-1.76c.22-3.63,3.69-3.06,6.64-3.55,2.31-.39-3.8-6.22.85-8.1A4.07,4.07,0,0,0,177.5,236a2.66,2.66,0,0,0-1-3.23,6.34,6.34,0,0,0-3.54-.89c-.76-.92-.14-2.31.6-3.25s1.63-2,1.35-3.18c-.42-1.75-2.87-1.81-4.64-1.47-.66-1.06-.64-2.39-1-3.59s-1.28-2.47-2.51-2.32-1.88,1.45-3,1.72c-1.33.32-2.48-.86-3.52-1.74s-2.86-1.43-3.58-.27c-.43.7-.17,1.66-.62,2.35-.77,1.18-2.6.45-3.74-.39s-2.95-1.6-3.75-.44a4.68,4.68,0,0,0-.44,1.22c-.54,1.55-2.22,2.33-3.53,3.32s-2.35,3-1.24,4.2c.55.6,1.51.84,1.78,1.61.34.95-.64,1.81-1.41,2.47-1.29,1.09-1.52,4.36.18,5.26.71.37,1.76.49,1.94,1.27s-.56,1.26-1,1.8a3.38,3.38,0,0,0,1,5c.41.2.91.36,1.06.78a1.57,1.57,0,0,1-.1.95,5.08,5.08,0,0,0-.16,1.82.85.85,0,0,0,.22.58.9.9,0,0,0,.54.15c2.45.11,3.64-.76,5.14,1.37a1.68,1.68,0,0,0,.51.55,1.55,1.55,0,0,0,.68.17c1.68.14,2.79-.92,4.33-1.11,2.14-.28,2.59.83,4.48,1.71C165.5,253.89,166.94,253,167.5,251Z" style="fill:#e0e0e0"></path><path d="M139.22,248a8.7,8.7,0,0,0,.27-1.75c.21-3.64,3.69-3.06,6.64-3.56,2.31-.38-3.8-6.21.85-8.09a4.16,4.16,0,0,0,2.25-1.57,2.66,2.66,0,0,0-1-3.23,6.22,6.22,0,0,0-3.53-.88c-.76-.92-.14-2.31.59-3.26s1.64-2,1.36-3.17c-.42-1.76-2.87-1.82-4.65-1.48-.65-1.06-.64-2.38-1-3.59s-1.27-2.47-2.51-2.32-1.88,1.46-3,1.73c-1.32.31-2.47-.86-3.51-1.74s-2.87-1.43-3.58-.27c-.43.69-.17,1.66-.62,2.34-.77,1.19-2.61.45-3.75-.39s-3-1.6-3.75-.43a5.15,5.15,0,0,0-.44,1.21c-.54,1.56-2.22,2.33-3.53,3.33s-2.34,3-1.23,4.19c.54.6,1.5.85,1.78,1.61.33,1-.64,1.81-1.41,2.47-1.29,1.09-1.52,4.37.18,5.26.71.38,1.76.49,1.93,1.28s-.56,1.25-1,1.79a3.38,3.38,0,0,0,1,5c.41.2.91.36,1.06.79a1.65,1.65,0,0,1-.09.95,5.08,5.08,0,0,0-.17,1.82.84.84,0,0,0,.23.57.87.87,0,0,0,.53.15c2.46.11,3.64-.76,5.14,1.38a1.88,1.88,0,0,0,.51.54,1.63,1.63,0,0,0,.68.17c1.69.14,2.79-.91,4.33-1.11,2.14-.27,2.6.83,4.48,1.72C137.23,250.83,138.67,250,139.22,248Z" style="fill:#e0e0e0"></path><path d="M136.5,230a9,9,0,0,0,.26-1.76c.22-3.64,3.69-3.06,6.65-3.55,2.3-.39-3.81-6.22.85-8.1A4.09,4.09,0,0,0,146.5,215a2.65,2.65,0,0,0-1-3.23,6.34,6.34,0,0,0-3.54-.89c-.75-.92-.14-2.31.6-3.25s1.63-2,1.35-3.18c-.42-1.75-2.87-1.82-4.64-1.47-.66-1.06-.64-2.39-1-3.6s-1.28-2.46-2.51-2.31-1.88,1.45-3,1.72c-1.33.32-2.48-.86-3.52-1.74s-2.86-1.43-3.58-.27c-.43.7-.17,1.66-.62,2.35-.77,1.18-2.6.45-3.74-.39s-3-1.6-3.75-.44a4.68,4.68,0,0,0-.44,1.22c-.54,1.55-2.22,2.33-3.53,3.32s-2.35,3-1.24,4.2c.55.6,1.51.84,1.78,1.61.34,1-.64,1.81-1.41,2.46-1.29,1.1-1.52,4.37.18,5.27.72.37,1.76.49,1.94,1.27s-.56,1.26-1,1.8a3.38,3.38,0,0,0,1,5c.41.19.91.35,1.06.78a1.57,1.57,0,0,1-.1.95,5.08,5.08,0,0,0-.16,1.82.81.81,0,0,0,.22.57.84.84,0,0,0,.54.16c2.45.11,3.64-.76,5.14,1.37a1.68,1.68,0,0,0,.51.55,1.55,1.55,0,0,0,.68.16c1.68.14,2.79-.91,4.33-1.11,2.14-.27,2.59.83,4.48,1.72C134.5,232.83,135.94,232,136.5,230Z" style="fill:#e0e0e0"></path><path d="M117.87,238.91a8.7,8.7,0,0,0,.27-1.75c.21-3.64,3.69-3.06,6.64-3.55,2.31-.39-3.8-6.22.85-8.1a4.16,4.16,0,0,0,2.25-1.57,2.64,2.64,0,0,0-1-3.22,6.23,6.23,0,0,0-3.53-.89c-.76-.92-.14-2.31.59-3.25s1.64-2,1.36-3.18c-.42-1.75-2.87-1.82-4.65-1.48-.65-1.06-.64-2.38-1-3.59s-1.27-2.47-2.51-2.32-1.88,1.46-3,1.73c-1.32.31-2.47-.86-3.51-1.74s-2.87-1.43-3.58-.27c-.43.69-.17,1.66-.62,2.35-.77,1.18-2.61.44-3.75-.39s-3-1.61-3.75-.44a5.07,5.07,0,0,0-.44,1.22C98,210,96.27,210.79,95,211.79s-2.34,3-1.23,4.2c.54.6,1.5.84,1.78,1.6.33,1-.64,1.82-1.41,2.47-1.29,1.1-1.52,4.37.18,5.26.71.38,1.76.49,1.93,1.28s-.56,1.25-1,1.8a3.38,3.38,0,0,0,1,5c.41.19.91.35,1.06.78a1.65,1.65,0,0,1-.09.95A5.08,5.08,0,0,0,97,237a.82.82,0,0,0,.23.57.75.75,0,0,0,.53.15c2.46.11,3.64-.75,5.14,1.38a1.76,1.76,0,0,0,.51.54,1.63,1.63,0,0,0,.68.17c1.69.14,2.79-.91,4.33-1.11,2.14-.27,2.6.83,4.48,1.72C115.88,241.79,117.32,240.93,117.87,238.91Z" style="fill:#e0e0e0"></path><path d="M99.05,234.77a8.73,8.73,0,0,0,.26-1.75c.22-3.64,3.69-3.06,6.65-3.56,2.3-.38-3.81-6.21.85-8.09a4.1,4.1,0,0,0,2.24-1.57,2.64,2.64,0,0,0-1-3.23,6.24,6.24,0,0,0-3.53-.88c-.76-.92-.15-2.31.59-3.26s1.63-2,1.35-3.17c-.42-1.76-2.87-1.82-4.64-1.48-.65-1.06-.64-2.38-1-3.59s-1.28-2.47-2.51-2.32-1.88,1.46-3,1.73c-1.33.31-2.48-.86-3.52-1.74s-2.86-1.43-3.58-.27c-.43.69-.17,1.66-.61,2.34-.78,1.19-2.61.45-3.75-.39s-3-1.6-3.75-.43a4.74,4.74,0,0,0-.44,1.21c-.54,1.56-2.22,2.33-3.53,3.33s-2.34,3-1.24,4.19c.55.6,1.51.85,1.78,1.61.34,1-.64,1.81-1.41,2.47-1.28,1.09-1.52,4.37.18,5.26.72.38,1.76.49,1.94,1.28s-.56,1.25-1,1.79a3.37,3.37,0,0,0,1,5c.41.2.91.36,1.06.79a1.57,1.57,0,0,1-.1,1,5.08,5.08,0,0,0-.16,1.82.83.83,0,0,0,.22.57.92.92,0,0,0,.54.15c2.46.11,3.64-.76,5.14,1.38a1.65,1.65,0,0,0,.51.54,1.55,1.55,0,0,0,.68.17c1.68.14,2.79-.91,4.33-1.11,2.14-.27,2.59.83,4.48,1.72C97.05,237.65,98.49,236.79,99.05,234.77Z" style="fill:#e0e0e0"></path><path d="M98.8,254.91a6.9,6.9,0,0,0,.21-1.38c.17-2.87,2.91-2.41,5.23-2.8,1.82-.31-3-4.9.67-6.38a3.19,3.19,0,0,0,1.77-1.23,2.09,2.09,0,0,0-.8-2.54,4.93,4.93,0,0,0-2.78-.7c-.6-.72-.11-1.82.47-2.56s1.28-1.59,1.06-2.5c-.33-1.38-2.26-1.43-3.65-1.16a10,10,0,0,1-.76-2.83c-.25-1-1-2-2-1.83s-1.47,1.15-2.37,1.36c-1.05.25-2-.68-2.77-1.37s-2.26-1.12-2.82-.21c-.34.55-.14,1.31-.49,1.85-.61.93-2.05.35-3-.31s-2.32-1.26-3-.34a3.86,3.86,0,0,0-.35,1c-.42,1.23-1.74,1.84-2.77,2.62s-1.85,2.35-1,3.3c.43.48,1.19.67,1.4,1.27.27.75-.5,1.43-1.11,1.94-1,.86-1.2,3.44.14,4.15.57.29,1.39.38,1.53,1s-.44,1-.82,1.42a2.66,2.66,0,0,0,.82,4c.32.15.72.28.83.61a1.22,1.22,0,0,1-.07.75,3.9,3.9,0,0,0-.13,1.44.66.66,0,0,0,.17.45A.8.8,0,0,0,83,254c1.93.08,2.86-.6,4,1.08a1.53,1.53,0,0,0,.41.43,1.33,1.33,0,0,0,.53.13c1.33.11,2.2-.72,3.41-.87,1.69-.22,2,.65,3.53,1.35C97.23,257.17,98.36,256.5,98.8,254.91Z" style="fill:#e0e0e0"></path><path d="M88.26,248a8.73,8.73,0,0,0,.26-1.75c.22-3.64,3.69-3.06,6.64-3.56,2.31-.38-3.8-6.21.85-8.09A4.09,4.09,0,0,0,98.26,233a2.66,2.66,0,0,0-1-3.23,6.25,6.25,0,0,0-3.54-.88c-.76-.92-.14-2.31.6-3.26s1.63-2,1.35-3.17c-.42-1.76-2.87-1.82-4.64-1.48-.66-1.06-.64-2.38-1-3.59s-1.28-2.47-2.51-2.32-1.88,1.46-3,1.73c-1.33.31-2.48-.86-3.52-1.74s-2.86-1.43-3.58-.27c-.43.69-.17,1.66-.62,2.34-.77,1.19-2.6.45-3.74-.39s-2.95-1.6-3.75-.43a5.18,5.18,0,0,0-.45,1.21c-.53,1.56-2.21,2.33-3.52,3.33s-2.35,3-1.24,4.19c.55.6,1.51.85,1.78,1.61.34,1-.64,1.81-1.41,2.47-1.29,1.09-1.52,4.37.18,5.26.71.38,1.76.49,1.94,1.28s-.56,1.25-1,1.79a3.38,3.38,0,0,0,1,5c.41.2.91.36,1.06.79a1.57,1.57,0,0,1-.1.95A4.86,4.86,0,0,0,67.4,246a.83.83,0,0,0,.22.57.9.9,0,0,0,.54.15c2.45.11,3.64-.76,5.14,1.38a1.65,1.65,0,0,0,.51.54,1.55,1.55,0,0,0,.67.17c1.69.14,2.79-.91,4.34-1.11,2.14-.27,2.59.83,4.48,1.72C86.26,250.83,87.7,250,88.26,248Z" style="fill:#e0e0e0"></path><path d="M117.87,216.77a8.92,8.92,0,0,0,.27-1.76c.21-3.64,3.69-3.06,6.64-3.55,2.31-.39-3.8-6.22.85-8.1a4.15,4.15,0,0,0,2.25-1.56,2.65,2.65,0,0,0-1-3.23,6.31,6.31,0,0,0-3.53-.89c-.76-.92-.14-2.31.59-3.25s1.64-2,1.36-3.18c-.42-1.75-2.87-1.82-4.65-1.47-.65-1.06-.64-2.39-1-3.6s-1.27-2.46-2.51-2.31-1.88,1.45-3,1.72c-1.32.32-2.47-.86-3.51-1.74s-2.87-1.43-3.58-.27c-.43.7-.17,1.66-.62,2.35-.77,1.18-2.61.45-3.75-.39s-3-1.6-3.75-.44a5.07,5.07,0,0,0-.44,1.22c-.54,1.55-2.22,2.33-3.53,3.32s-2.34,3-1.23,4.2c.54.6,1.5.84,1.78,1.61.33,1-.64,1.81-1.41,2.46-1.29,1.1-1.52,4.37.18,5.27.71.37,1.76.49,1.93,1.27s-.56,1.26-1,1.8a3.38,3.38,0,0,0,1,5c.41.19.91.35,1.06.78a1.64,1.64,0,0,1-.09.95,5.08,5.08,0,0,0-.17,1.82.68.68,0,0,0,.76.73c2.46.11,3.64-.76,5.14,1.37a1.92,1.92,0,0,0,.51.55,1.62,1.62,0,0,0,.68.16c1.69.14,2.79-.91,4.33-1.11,2.14-.27,2.6.83,4.48,1.72C115.88,219.65,117.32,218.79,117.87,216.77Z" style="fill:#e0e0e0"></path><path d="M142.05,218a8,8,0,0,0,.27-1.75c.22-3.64,3.69-3.06,6.64-3.56,2.31-.38-3.8-6.21.85-8.09a4.09,4.09,0,0,0,2.25-1.57,2.64,2.64,0,0,0-1-3.22,6.15,6.15,0,0,0-3.53-.89c-.76-.92-.14-2.31.59-3.25s1.64-2,1.36-3.18c-.42-1.76-2.87-1.82-4.64-1.48-.66-1.06-.65-2.38-1-3.59s-1.28-2.47-2.52-2.32-1.87,1.46-3,1.73c-1.32.31-2.47-.86-3.51-1.74s-2.86-1.43-3.58-.27c-.43.69-.17,1.66-.62,2.34-.77,1.19-2.61.45-3.74-.39s-3-1.6-3.76-.43a5.07,5.07,0,0,0-.44,1.22c-.54,1.55-2.22,2.32-3.52,3.32s-2.35,3-1.24,4.19c.55.6,1.51.85,1.78,1.61.34,1-.64,1.81-1.41,2.47-1.29,1.09-1.52,4.37.18,5.26.71.38,1.76.49,1.93,1.28s-.55,1.25-1,1.79a3.39,3.39,0,0,0,1,5c.4.19.91.35,1.06.78a1.57,1.57,0,0,1-.1.95,4.86,4.86,0,0,0-.16,1.82.65.65,0,0,0,.76.72c2.45.11,3.64-.76,5.13,1.38a1.79,1.79,0,0,0,.52.54,1.55,1.55,0,0,0,.67.17c1.69.14,2.79-.91,4.34-1.11,2.14-.27,2.59.83,4.47,1.72C140.06,220.88,141.5,220,142.05,218Z" style="fill:#e0e0e0"></path><path d="M156.74,227.9a8.93,8.93,0,0,0,.27-1.75c.21-3.64,3.69-3.07,6.64-3.56,2.31-.39-3.8-6.22.85-8.1a4.07,4.07,0,0,0,2.25-1.56,2.65,2.65,0,0,0-1-3.23,6.22,6.22,0,0,0-3.53-.88c-.76-.93-.14-2.32.59-3.26s1.64-2,1.36-3.18c-.42-1.75-2.87-1.81-4.65-1.47-.65-1.06-.64-2.39-.95-3.59s-1.28-2.47-2.52-2.32-1.87,1.46-3,1.73c-1.32.31-2.47-.87-3.51-1.75s-2.86-1.42-3.58-.27c-.43.7-.17,1.67-.62,2.35-.77,1.18-2.61.45-3.74-.39s-3-1.6-3.76-.44a5.07,5.07,0,0,0-.44,1.22c-.54,1.56-2.22,2.33-3.52,3.33s-2.35,3-1.24,4.19c.54.6,1.5.84,1.78,1.61.34.95-.64,1.81-1.41,2.47-1.29,1.09-1.52,4.36.18,5.26.71.37,1.76.49,1.93,1.28s-.56,1.25-1,1.79a3.38,3.38,0,0,0,1,5c.41.2.91.36,1.07.78a1.64,1.64,0,0,1-.1.95,5.14,5.14,0,0,0-.17,1.83.86.86,0,0,0,.23.57.87.87,0,0,0,.53.15c2.46.11,3.64-.76,5.14,1.38a2,2,0,0,0,.51.54,1.63,1.63,0,0,0,.68.17c1.69.14,2.79-.92,4.33-1.11,2.14-.28,2.6.83,4.48,1.71C154.75,230.78,156.19,229.92,156.74,227.9Z" style="fill:#e0e0e0"></path><path d="M152.29,240.41s-6.14,8.68-8.26,11.44-12.71,19.91-14.15,31.25c-.16,1.22-.31,2.26-.46,3.17,4.56,30.07,3.85,85.08,3.68,94.5H118.67c-.13-10.62-1.36-107.7-1.81-110.67-.48-3.13-6.51-15.08-15.83-20S83.65,229,83.65,229h3s5.51,9.95,13.35,15.46a29.47,29.47,0,0,0,3.53,2.09A49.86,49.86,0,0,1,106.61,229l1.61,1.48c-2.17,8.87-1.88,14.55-1.23,17.81a32.18,32.18,0,0,1,8.1,5.42c8.13-10.57,12.71-34.75,12.71-34.75l2.08,1.14a123.71,123.71,0,0,1-2.69,14.83c-1.52,6.26-6,18-8.09,23.39a55.56,55.56,0,0,1,6.14,11.53,4.49,4.49,0,0,1,.78-.94c5.3-4.79,15.25-27.41,15.25-27.41,2.41-5.26-1.27-19.07-1.27-19.07h2.78L144,234.48l7-7.63,1.27,1.06-7.41,9.53-3.82,12.08,10-11Z" style="fill:#e0e0e0"></path><path d="M221.09,315a3.86,3.86,0,0,0,.14-.89c.11-1.84,1.87-1.55,3.36-1.8,1.17-.19-1.92-3.15.43-4.1a2.06,2.06,0,0,0,1.14-.8,1.33,1.33,0,0,0-.51-1.63,3.17,3.17,0,0,0-1.79-.45c-.39-.47-.07-1.17.3-1.65s.83-1,.69-1.61c-.22-.89-1.46-.92-2.36-.75a6.42,6.42,0,0,1-.48-1.82c-.16-.61-.65-1.25-1.28-1.17s-.95.74-1.53.87-1.25-.43-1.78-.88-1.45-.72-1.81-.14c-.22.36-.09.85-.32,1.19-.39.6-1.32.23-1.89-.19s-1.5-.82-1.91-.23a2.69,2.69,0,0,0-.22.62c-.27.79-1.12,1.18-1.79,1.69s-1.18,1.51-.62,2.12c.27.31.76.43.9.82s-.32.91-.72,1.25c-.65.55-.77,2.21.1,2.66.36.19.89.25,1,.65s-.29.64-.53.91a1.71,1.71,0,0,0,.53,2.55c.2.1.46.18.54.4a.89.89,0,0,1,0,.48,2.39,2.39,0,0,0-.09.92.38.38,0,0,0,.12.29.48.48,0,0,0,.27.08c1.24.05,1.84-.39,2.6.7a.84.84,0,0,0,.26.27.82.82,0,0,0,.34.09c.86.07,1.42-.47,2.2-.57,1.08-.13,1.31.42,2.27.87C220.08,316.47,220.81,316,221.09,315Z" style="fill:#ebebeb"></path><path d="M206.76,313.46a3.86,3.86,0,0,0,.14-.89c.11-1.84,1.87-1.55,3.37-1.8,1.17-.19-1.93-3.15.43-4.1a2.11,2.11,0,0,0,1.13-.79,1.34,1.34,0,0,0-.51-1.64,3.15,3.15,0,0,0-1.79-.45c-.38-.47-.07-1.17.3-1.65s.83-1,.69-1.61c-.22-.89-1.46-.92-2.36-.74a6.51,6.51,0,0,1-.48-1.82c-.16-.62-.65-1.26-1.28-1.18s-1,.74-1.53.88-1.25-.44-1.78-.89-1.45-.72-1.81-.13c-.22.35-.09.84-.31,1.18-.4.61-1.32.23-1.9-.19s-1.5-.81-1.9-.22a2.25,2.25,0,0,0-.23.61c-.27.79-1.12,1.18-1.78,1.69s-1.19,1.51-.63,2.12c.28.31.76.43.9.82s-.32.92-.71,1.25c-.66.55-.77,2.21.09,2.67.36.19.89.24,1,.64s-.28.64-.53.91a1.71,1.71,0,0,0,.53,2.55c.21.1.46.18.54.4a.89.89,0,0,1-.05.48,2.39,2.39,0,0,0-.09.92.43.43,0,0,0,.12.29.36.36,0,0,0,.27.08c1.24.06,1.84-.38,2.6.7a1,1,0,0,0,.26.27.86.86,0,0,0,.35.09c.85.07,1.41-.46,2.19-.56,1.09-.14,1.32.42,2.27.87C205.75,314.92,206.48,314.49,206.76,313.46Z" style="fill:#ebebeb"></path><path d="M205.38,304.34a3.86,3.86,0,0,0,.14-.89c.11-1.84,1.87-1.55,3.36-1.8,1.17-.2-1.92-3.15.44-4.11a2,2,0,0,0,1.13-.79,1.33,1.33,0,0,0-.51-1.63,3.17,3.17,0,0,0-1.79-.45c-.39-.47-.07-1.17.3-1.65s.83-1,.69-1.61c-.22-.89-1.46-.92-2.36-.75a6.51,6.51,0,0,1-.48-1.82c-.16-.61-.65-1.25-1.28-1.17s-1,.73-1.53.87-1.25-.44-1.78-.88-1.45-.73-1.81-.14c-.22.35-.09.84-.31,1.19-.4.6-1.33.23-1.9-.2s-1.5-.81-1.9-.22a2.2,2.2,0,0,0-.23.62c-.27.79-1.12,1.18-1.78,1.68s-1.19,1.51-.63,2.13c.27.3.76.43.9.81s-.32.92-.72,1.25c-.65.56-.76,2.22.1,2.67.36.19.89.25,1,.65s-.29.63-.53.91a1.71,1.71,0,0,0,.53,2.55c.21.1.46.18.54.39a.92.92,0,0,1,0,.49,2.37,2.37,0,0,0-.09.92.45.45,0,0,0,.12.29.48.48,0,0,0,.27.08c1.24,0,1.84-.39,2.6.69a1,1,0,0,0,.26.28.82.82,0,0,0,.35.08c.85.07,1.41-.46,2.19-.56,1.09-.14,1.32.42,2.27.87C204.37,305.8,205.1,305.36,205.38,304.34Z" style="fill:#ebebeb"></path><path d="M196,308.88a4.52,4.52,0,0,0,.13-.89c.11-1.84,1.87-1.55,3.37-1.8,1.17-.19-1.93-3.15.43-4.1a2.07,2.07,0,0,0,1.13-.79,1.34,1.34,0,0,0-.51-1.64,3.15,3.15,0,0,0-1.79-.45c-.38-.47-.07-1.17.3-1.65s.83-1,.69-1.61c-.21-.89-1.46-.92-2.36-.74a6.51,6.51,0,0,1-.48-1.82c-.16-.62-.65-1.26-1.27-1.18s-1,.74-1.53.88-1.26-.44-1.79-.89-1.45-.72-1.81-.13c-.22.35-.09.84-.31,1.18-.4.61-1.32.23-1.9-.19s-1.5-.81-1.9-.22a2.64,2.64,0,0,0-.23.61c-.27.79-1.12,1.18-1.78,1.69s-1.19,1.51-.63,2.12c.28.31.76.43.9.82s-.32.92-.71,1.25c-.66.55-.77,2.21.09,2.67.36.19.89.24,1,.64s-.28.64-.52.91a1.7,1.7,0,0,0,.52,2.55c.21.1.46.18.54.4a.89.89,0,0,1,0,.48,2.6,2.6,0,0,0-.09.92.43.43,0,0,0,.12.29.36.36,0,0,0,.27.08c1.24.06,1.84-.38,2.6.7a1,1,0,0,0,.26.27.86.86,0,0,0,.35.09c.85.07,1.41-.46,2.19-.56,1.09-.14,1.32.42,2.27.87C194.93,310.34,195.66,309.91,196,308.88Z" style="fill:#ebebeb"></path><path d="M186.41,306.78a4.53,4.53,0,0,0,.13-.88c.11-1.85,1.87-1.56,3.37-1.81,1.17-.19-1.93-3.15.43-4.1a2.13,2.13,0,0,0,1.14-.79,1.36,1.36,0,0,0-.52-1.64,3.15,3.15,0,0,0-1.79-.45c-.38-.46-.07-1.17.3-1.65s.83-1,.69-1.61c-.21-.88-1.46-.92-2.35-.74a6.2,6.2,0,0,1-.49-1.82c-.16-.61-.65-1.26-1.27-1.18s-1,.74-1.53.88-1.26-.44-1.79-.89-1.45-.72-1.81-.13c-.22.35-.09.84-.31,1.19-.39.6-1.32.22-1.9-.2s-1.5-.81-1.9-.22a2.64,2.64,0,0,0-.23.61c-.27.79-1.12,1.18-1.78,1.69s-1.19,1.51-.63,2.12c.28.31.76.43.9.82s-.32.92-.71,1.25c-.65.55-.77,2.21.09,2.67.36.19.89.25,1,.64s-.28.64-.52.91a1.71,1.71,0,0,0,.52,2.55c.21.1.46.18.54.4a.89.89,0,0,1-.05.48,2.38,2.38,0,0,0-.08.92.42.42,0,0,0,.11.29.36.36,0,0,0,.27.08c1.25.06,1.85-.38,2.6.7a1,1,0,0,0,.26.27.86.86,0,0,0,.35.09c.85.07,1.41-.46,2.19-.56,1.09-.14,1.32.42,2.27.87C185.4,308.24,186.12,307.81,186.41,306.78Z" style="fill:#ebebeb"></path><path d="M186.28,317a3.54,3.54,0,0,0,.11-.7c.08-1.45,1.47-1.22,2.65-1.42.92-.15-1.52-2.48.34-3.23a1.61,1.61,0,0,0,.89-.63,1,1,0,0,0-.4-1.28,2.46,2.46,0,0,0-1.41-.36c-.3-.37-.06-.92.24-1.3s.65-.8.54-1.26c-.17-.7-1.15-.73-1.86-.59a5.2,5.2,0,0,1-.38-1.43c-.13-.49-.51-1-1-.93s-.75.58-1.21.69-1-.34-1.4-.7-1.14-.57-1.43-.1c-.17.27-.07.66-.24.93-.31.48-1,.18-1.5-.15s-1.18-.64-1.5-.18a2.19,2.19,0,0,0-.17.49c-.22.62-.89.93-1.41,1.33s-.93,1.18-.49,1.67c.21.24.6.34.71.64s-.26.72-.57,1c-.51.43-.6,1.74.08,2.09.28.15.7.2.77.52s-.22.49-.41.71a1.35,1.35,0,0,0,.41,2c.16.08.36.14.42.31a.56.56,0,0,1,0,.38,2.24,2.24,0,0,0-.06.73.29.29,0,0,0,.09.22.38.38,0,0,0,.21.07c1,0,1.45-.31,2.05.54a.63.63,0,0,0,.21.22.6.6,0,0,0,.27.07c.67.05,1.11-.37,1.73-.44.85-.11,1,.33,1.78.68C185.49,318.14,186.06,317.79,186.28,317Z" style="fill:#ebebeb"></path><path d="M180.94,313.46a4.52,4.52,0,0,0,.13-.89c.11-1.84,1.87-1.55,3.37-1.8,1.17-.19-1.93-3.15.43-4.1a2.13,2.13,0,0,0,1.14-.79,1.36,1.36,0,0,0-.52-1.64,3.15,3.15,0,0,0-1.79-.45c-.38-.47-.07-1.17.3-1.65s.83-1,.69-1.61c-.21-.89-1.46-.92-2.35-.74a6.2,6.2,0,0,1-.49-1.82c-.16-.62-.65-1.26-1.27-1.18s-1,.74-1.53.88-1.26-.44-1.79-.89-1.45-.72-1.81-.13c-.22.35-.09.84-.31,1.18-.39.61-1.32.23-1.9-.19s-1.5-.81-1.9-.22a2.64,2.64,0,0,0-.23.61c-.27.79-1.12,1.18-1.78,1.69s-1.19,1.51-.63,2.12c.28.31.76.43.9.82s-.32.92-.71,1.25c-.65.55-.77,2.21.09,2.67.36.19.89.24,1,.64s-.28.64-.52.91a1.71,1.71,0,0,0,.52,2.55c.21.1.46.18.54.4a.89.89,0,0,1-.05.48,2.38,2.38,0,0,0-.08.92.42.42,0,0,0,.11.29.36.36,0,0,0,.27.08c1.25.06,1.85-.38,2.61.7a.81.81,0,0,0,.25.27.86.86,0,0,0,.35.09c.85.07,1.41-.46,2.19-.56,1.09-.14,1.32.42,2.27.87C179.93,314.92,180.65,314.49,180.94,313.46Z" style="fill:#ebebeb"></path><path d="M196,297.66a4.52,4.52,0,0,0,.13-.89c.11-1.84,1.87-1.55,3.37-1.8,1.17-.2-1.93-3.15.43-4.1a2,2,0,0,0,1.13-.8,1.33,1.33,0,0,0-.51-1.63,3.15,3.15,0,0,0-1.79-.45c-.38-.47-.07-1.17.3-1.65s.83-1,.69-1.61c-.21-.89-1.46-.92-2.36-.75a6.51,6.51,0,0,1-.48-1.82c-.16-.61-.65-1.25-1.27-1.17s-1,.74-1.53.87-1.26-.43-1.79-.88-1.45-.73-1.81-.14c-.22.35-.09.84-.31,1.19-.4.6-1.32.23-1.9-.2s-1.5-.81-1.9-.22a2.55,2.55,0,0,0-.23.62c-.27.79-1.12,1.18-1.78,1.68s-1.19,1.51-.63,2.13c.28.3.76.43.9.81s-.32.92-.71,1.26c-.66.55-.77,2.21.09,2.66.36.19.89.25,1,.65s-.28.63-.52.91a1.7,1.7,0,0,0,.52,2.55c.21.1.46.18.54.39a.92.92,0,0,1,0,.49,2.6,2.6,0,0,0-.09.92.43.43,0,0,0,.12.29.48.48,0,0,0,.27.08c1.24.05,1.84-.39,2.6.69a1,1,0,0,0,.26.28.85.85,0,0,0,.35.08c.85.07,1.41-.46,2.19-.56,1.09-.14,1.32.42,2.27.87C194.93,299.12,195.66,298.68,196,297.66Z" style="fill:#ebebeb"></path><path d="M208.2,298.29a4.64,4.64,0,0,0,.13-.89c.11-1.85,1.87-1.55,3.37-1.8,1.17-.2-1.93-3.15.43-4.11a2,2,0,0,0,1.14-.79,1.34,1.34,0,0,0-.51-1.64,3.25,3.25,0,0,0-1.79-.45c-.39-.46-.08-1.17.3-1.64s.82-1,.68-1.61c-.21-.89-1.45-.93-2.35-.75a6.53,6.53,0,0,1-.49-1.82c-.16-.61-.64-1.25-1.27-1.18s-1,.74-1.53.88-1.25-.44-1.78-.88-1.45-.73-1.82-.14c-.21.35-.08.84-.31,1.19-.39.6-1.32.23-1.9-.2s-1.49-.81-1.9-.22a2.53,2.53,0,0,0-.22.62c-.27.78-1.13,1.18-1.79,1.68s-1.19,1.51-.63,2.13c.28.3.77.42.91.81s-.33.92-.72,1.25c-.65.56-.77,2.21.09,2.67.36.19.89.25,1,.65s-.28.63-.52.91a1.71,1.71,0,0,0,.52,2.54c.21.1.47.19.54.4a.73.73,0,0,1,0,.48,2.65,2.65,0,0,0-.08.93.32.32,0,0,0,.38.36c1.25.06,1.85-.38,2.61.7a1,1,0,0,0,.26.28.77.77,0,0,0,.34.08c.86.07,1.42-.46,2.2-.56,1.08-.14,1.31.42,2.27.87C207.19,299.74,207.92,299.31,208.2,298.29Z" style="fill:#ebebeb"></path><path d="M215.64,303.3a3.86,3.86,0,0,0,.14-.89c.11-1.84,1.87-1.55,3.36-1.8,1.17-.19-1.92-3.15.44-4.1a2.07,2.07,0,0,0,1.13-.8,1.33,1.33,0,0,0-.51-1.63,3.17,3.17,0,0,0-1.79-.45c-.39-.47-.07-1.17.3-1.65s.83-1,.69-1.61c-.22-.89-1.46-.92-2.36-.75a6.42,6.42,0,0,1-.48-1.82c-.16-.61-.65-1.25-1.28-1.17s-.95.74-1.53.87-1.25-.43-1.78-.88-1.45-.72-1.81-.14c-.22.36-.09.85-.32,1.19-.39.6-1.32.23-1.89-.2s-1.5-.81-1.9-.22a2.32,2.32,0,0,0-.23.62c-.27.79-1.12,1.18-1.79,1.69s-1.18,1.51-.62,2.12c.27.31.76.43.9.82s-.32.91-.72,1.25c-.65.55-.77,2.21.1,2.66.36.19.89.25,1,.65s-.29.64-.53.91a1.71,1.71,0,0,0,.53,2.55c.2.1.46.18.54.4a.89.89,0,0,1-.05.48,2.39,2.39,0,0,0-.09.92.38.38,0,0,0,.12.29.48.48,0,0,0,.27.08c1.24.05,1.84-.39,2.6.7a1,1,0,0,0,.26.27.82.82,0,0,0,.34.09c.86.07,1.42-.47,2.2-.57,1.09-.14,1.31.42,2.27.87C214.63,304.76,215.36,304.32,215.64,303.3Z" style="fill:#ebebeb"></path><path d="M213.39,309.64s-3.12,4.4-4.19,5.8-6.44,10.09-7.17,15.84c-.08.61-.16,1.14-.23,1.6,2.31,15.24,1.95,43.12,1.86,47.89h-7.31c-.07-5.38-.69-54.58-.92-56.08s-3.3-7.64-8-10.13-8.81-10.72-8.81-10.72h1.51s2.79,5.05,6.76,7.84a17.16,17.16,0,0,0,1.79,1.06,25.43,25.43,0,0,1,1.58-8.9l.81.75c-1.1,4.5-1,7.38-.62,9a16.38,16.38,0,0,1,4.11,2.75c4.12-5.36,6.43-17.61,6.43-17.61l1.06.57a62,62,0,0,1-1.36,7.52c-.77,3.17-3,9.14-4.1,11.85a28.38,28.38,0,0,1,3.11,5.84,1.81,1.81,0,0,1,.4-.47c2.68-2.43,7.73-13.89,7.73-13.89,1.22-2.67-.65-9.67-.65-9.67h1.41l.63,6.12,3.54-3.86.65.54-3.76,4.83-1.93,6.12,5-5.59Z" style="fill:#e6e6e6"></path><path d="M104.72,377c-4-2.21-9.24,3.82-9.24,3.82s5.83-7.87,3-9.23S90.34,377,90.34,377s4.64-9.86,1.42-10.53c-1.56-.33-4.14,2.41-6.39,5.32-.24-3.72-1.14-7.63-3.84-8-3.18-.42-4.58,4.83-5.19,9.08-2.41-3.27-5.46-6.78-7.21-6.41-3.22.67,1.42,10.53,1.42,10.53s-5.33-6.77-8.15-5.41,3,9.23,3,9.23-5.23-6-9.24-3.82a8.72,8.72,0,0,0-4.56,5.63h57.67A8.72,8.72,0,0,0,104.72,377Z" style="fill:#e0e0e0"></path><path d="M148.59,377c-4-2.21-9.24,3.82-9.24,3.82s5.83-7.87,3-9.23-8.15,5.41-8.15,5.41,4.64-9.86,1.42-10.53c-1.56-.33-4.14,2.41-6.39,5.32-.24-3.72-1.14-7.63-3.84-8-3.18-.42-4.58,4.83-5.19,9.08-2.41-3.27-5.46-6.78-7.21-6.41-3.22.67,1.42,10.53,1.42,10.53s-5.33-6.77-8.15-5.41,3,9.23,3,9.23-5.23-6-9.23-3.82a8.72,8.72,0,0,0-4.57,5.63h57.67A8.72,8.72,0,0,0,148.59,377Z" style="fill:#e0e0e0"></path><path d="M206.46,377c-4-2.21-9.24,3.82-9.24,3.82s5.83-7.87,3-9.23-8.15,5.41-8.15,5.41,4.64-9.86,1.42-10.53c-1.55-.33-4.14,2.41-6.39,5.32-.24-3.72-1.14-7.63-3.84-8-3.18-.42-4.58,4.83-5.19,9.08-2.41-3.27-5.46-6.78-7.21-6.41-3.22.67,1.43,10.53,1.43,10.53s-5.34-6.77-8.16-5.41,3,9.23,3,9.23-5.23-6-9.23-3.82a8.72,8.72,0,0,0-4.57,5.63H211A8.76,8.76,0,0,0,206.46,377Z" style="fill:#e0e0e0"></path><path d="M228.33,377c-4-2.21-9.24,3.82-9.24,3.82s5.83-7.87,3-9.23S214,377,214,377s4.64-9.86,1.42-10.53c-1.56-.33-4.14,2.41-6.39,5.32-.24-3.72-1.14-7.63-3.84-8-3.18-.42-4.58,4.83-5.19,9.08-2.41-3.27-5.46-6.78-7.21-6.41-3.22.67,1.42,10.53,1.42,10.53s-5.33-6.77-8.15-5.41,3,9.23,3,9.23-5.23-6-9.23-3.82a8.72,8.72,0,0,0-4.57,5.63h57.67A8.72,8.72,0,0,0,228.33,377Z" style="fill:#e0e0e0"></path><path d="M280.2,377c-4-2.21-9.24,3.82-9.24,3.82s5.83-7.87,3-9.23-8.15,5.41-8.15,5.41,4.64-9.86,1.42-10.53c-1.55-.33-4.14,2.41-6.39,5.32-.24-3.72-1.14-7.63-3.84-8-3.18-.42-4.58,4.83-5.19,9.08-2.41-3.27-5.46-6.78-7.21-6.41C241.39,367.09,246,377,246,377s-5.34-6.77-8.16-5.41,3,9.23,3,9.23-5.24-6-9.24-3.82a8.72,8.72,0,0,0-4.57,5.63h57.68A8.76,8.76,0,0,0,280.2,377Z" style="fill:#e0e0e0"></path><path d="M324.07,377c-4-2.21-9.24,3.82-9.24,3.82s5.83-7.87,3-9.23-8.15,5.41-8.15,5.41,4.64-9.86,1.43-10.53c-1.56-.33-4.15,2.41-6.4,5.32-.24-3.72-1.14-7.63-3.84-8-3.18-.42-4.57,4.83-5.18,9.08-2.42-3.27-5.47-6.78-7.22-6.41-3.22.67,1.43,10.53,1.43,10.53s-5.34-6.77-8.16-5.41,3,9.23,3,9.23-5.24-6-9.24-3.82a8.72,8.72,0,0,0-4.57,5.63h57.68A8.76,8.76,0,0,0,324.07,377Z" style="fill:#e0e0e0"></path><path d="M367.94,377c-4-2.21-9.24,3.82-9.24,3.82s5.83-7.87,3-9.23-8.15,5.41-8.15,5.41,4.64-9.86,1.43-10.53c-1.56-.33-4.15,2.41-6.4,5.32-.24-3.72-1.14-7.63-3.84-8-3.18-.42-4.57,4.83-5.18,9.08-2.42-3.27-5.47-6.78-7.22-6.41-3.22.67,1.43,10.53,1.43,10.53s-5.34-6.77-8.16-5.41,3,9.23,3,9.23-5.24-6-9.24-3.82a8.72,8.72,0,0,0-4.57,5.63h57.68A8.76,8.76,0,0,0,367.94,377Z" style="fill:#e0e0e0"></path><path d="M411.81,377c-4-2.21-9.24,3.82-9.24,3.82s5.83-7.87,3-9.23-8.15,5.41-8.15,5.41,4.64-9.86,1.43-10.53c-1.56-.33-4.15,2.41-6.4,5.32-.23-3.72-1.13-7.63-3.84-8-3.18-.42-4.57,4.83-5.18,9.08-2.42-3.27-5.47-6.78-7.22-6.41-3.21.67,1.43,10.53,1.43,10.53s-5.34-6.77-8.16-5.41,3,9.23,3,9.23-5.24-6-9.24-3.82a8.72,8.72,0,0,0-4.57,5.63h57.68A8.76,8.76,0,0,0,411.81,377Z" style="fill:#e0e0e0"></path><path d="M439.68,377c-4-2.21-9.24,3.82-9.24,3.82s5.83-7.87,3-9.23S425.3,377,425.3,377s4.64-9.86,1.43-10.53c-1.56-.33-4.15,2.41-6.4,5.32-.24-3.72-1.14-7.63-3.84-8-3.18-.42-4.57,4.83-5.18,9.08-2.42-3.27-5.47-6.78-7.22-6.41-3.22.67,1.43,10.53,1.43,10.53s-5.34-6.77-8.16-5.41,3,9.23,3,9.23-5.24-6-9.24-3.82a8.72,8.72,0,0,0-4.57,5.63h57.68A8.76,8.76,0,0,0,439.68,377Z" style="fill:#e0e0e0"></path></g><g id="freepik--Shadow--inject-17"><ellipse id="freepik--path--inject-17" cx="250" cy="416.24" rx="193.89" ry="11.32" style="fill:#f5f5f5"></ellipse></g><g id="freepik--plants-2--inject-17"><path d="M279.87,399H443s-5.15-4-18.77-5.14c0,0,28.31-19.73,16.28-30.16-10.69-9.26-25.85,18.64-25.85,18.64s29-51.91,8.06-62.06S384,362.62,384,362.62s1.53-23.1-14.6-25.21c-14.19-1.86-22.69,15.32-12.81,40.5,0,0-11.17-16-29.3-7.69-16.29,7.42-2.13,22.36-2.13,22.36S299.57,393.7,279.87,399Z" style="fill:#407BFF"></path><g style="opacity:0.1"><path d="M279.87,399H443s-5.15-4-18.77-5.14c0,0,28.31-19.73,16.28-30.16-10.69-9.26-25.85,18.64-25.85,18.64s29-51.91,8.06-62.06S384,362.62,384,362.62s1.53-23.1-14.6-25.21c-14.19-1.86-22.69,15.32-12.81,40.5,0,0-11.17-16-29.3-7.69-16.29,7.42-2.13,22.36-2.13,22.36S299.57,393.7,279.87,399Z"></path></g><path d="M393.74,382.19c-2.1-7-22.09-3-22.09-3s21-13.1,19-17.2-21.62,10.63-21.62,10.63,21.91-23.47,16.31-27.2c-4.71-3.14-14.51,12.54-17.5,17.58,3.4-5.89,15.36-27.12,12-27.84-3.91-.83-16.36,25.58-16.36,25.58s14.26-41.43,5.36-28.72S349,384.87,349,384.87c10.23,14.88,38.86,17.56,36.92,10.2-1.45-5.49-7.5-6.63-10.46-6.85C380.55,388.3,395.48,388.06,393.74,382.19Z" style="fill:#407BFF"></path><path d="M393.74,382.19c-2.1-7-22.09-3-22.09-3s21-13.1,19-17.2-21.62,10.63-21.62,10.63,21.91-23.47,16.31-27.2c-4.71-3.14-14.51,12.54-17.5,17.58,3.4-5.89,15.36-27.12,12-27.84-3.91-.83-16.36,25.58-16.36,25.58s14.26-41.43,5.36-28.72S349,384.87,349,384.87c10.23,14.88,38.86,17.56,36.92,10.2-1.45-5.49-7.5-6.63-10.46-6.85C380.55,388.3,395.48,388.06,393.74,382.19Z" style="fill:#fff;opacity:0.2"></path><path d="M318,376.69s-14.45,3.75-13.45,7.35S318,387.16,318,387.16a24.75,24.75,0,0,0,4.11,8.75h28.82c3.21-6.4,13.45-27.5,10.9-31.74-3-5-9.35,11.17-9.35,11.17s11.46-36.62,7.32-40.64S348,366.22,348,366.22s4-41.66,0-43.88-6,37.71-6,37.71-2.74-42.24-7.78-41.61,0,37.54,0,37.54S323,327.89,318,329s8.13,29.07,8.13,29.07-13.36-16.87-17.23-12.91,11.95,22.43,11.95,22.43-13.56-8.45-17.07-4.23S318,376.69,318,376.69Z" style="fill:#407BFF"></path><path d="M318,376.69s-14.45,3.75-13.45,7.35S318,387.16,318,387.16a24.75,24.75,0,0,0,4.11,8.75h28.82c3.21-6.4,13.45-27.5,10.9-31.74-3-5-9.35,11.17-9.35,11.17s11.46-36.62,7.32-40.64S348,366.22,348,366.22s4-41.66,0-43.88-6,37.71-6,37.71-2.74-42.24-7.78-41.61,0,37.54,0,37.54S323,327.89,318,329s8.13,29.07,8.13,29.07-13.36-16.87-17.23-12.91,11.95,22.43,11.95,22.43-13.56-8.45-17.07-4.23S318,376.69,318,376.69Z" style="opacity:0.30000000000000004"></path><path d="M347.48,384h.09a.49.49,0,0,0,.38-.59c-.09-.45-9.61-45.69-30-64.77a.5.5,0,0,0-.69.73c20.2,18.86,29.65,63.79,29.74,64.24A.5.5,0,0,0,347.48,384Z" style="fill:#263238"></path><path d="M314.94,319.07a2.64,2.64,0,1,0,2.57-2.7A2.64,2.64,0,0,0,314.94,319.07Z" style="fill:#263238"></path><path d="M324,340.09a2.25,2.25,0,1,0,2.19-2.31A2.25,2.25,0,0,0,324,340.09Z" style="fill:#263238"></path><path d="M333.76,333.3A2.25,2.25,0,1,0,336,331,2.25,2.25,0,0,0,333.76,333.3Z" style="fill:#263238"></path><path d="M327.15,348.17a2.26,2.26,0,0,0,2.31,2.19,2.25,2.25,0,1,0-2.31-2.19Z" style="fill:#263238"></path><path d="M337.35,344.68a2.25,2.25,0,1,0,2.2-2.31A2.25,2.25,0,0,0,337.35,344.68Z" style="fill:#263238"></path><path d="M325.54,321.44a2.25,2.25,0,1,0,2.19-2.31A2.25,2.25,0,0,0,325.54,321.44Z" style="fill:#263238"></path><path d="M328.59,332.89l-.3-11.52a.49.49,0,0,0-.51-.49.51.51,0,0,0-.49.51l.27,10.25L318,329.52a.52.52,0,0,0-.6.39.5.5,0,0,0,.38.59Z" style="fill:#263238"></path><path d="M333.67,342.45l2.82-9.06a.5.5,0,1,0-.95-.3L333,341.3,326.3,340a.5.5,0,0,0-.19,1Z" style="fill:#263238"></path><path d="M337.74,351.78l2.34-7a.5.5,0,0,0-.32-.63.49.49,0,0,0-.63.32l-2,6-7.54-2.84a.5.5,0,0,0-.35.94Z" style="fill:#263238"></path><path d="M315.61,330.33a2.25,2.25,0,1,0,4.5-.11,2.25,2.25,0,0,0-4.5.11Z" style="fill:#263238"></path><path d="M371.29,391.4a.48.48,0,0,0,.4-.21c10.56-14.56,23.6-30.46,40.31-37.9a.51.51,0,0,0,.25-.67.5.5,0,0,0-.66-.25c-16.93,7.55-30.08,23.56-40.71,38.24a.49.49,0,0,0,.12.69A.46.46,0,0,0,371.29,391.4Z" style="fill:#263238"></path><path d="M414.26,353.75a2.64,2.64,0,1,1-1.54-3.39A2.63,2.63,0,0,1,414.26,353.75Z" style="fill:#263238"></path><path d="M398.89,370.68a2.25,2.25,0,1,1-1.32-2.9A2.26,2.26,0,0,1,398.89,370.68Z" style="fill:#263238"></path><path d="M391.83,361.06a2.25,2.25,0,1,1-4.22-1.58,2.25,2.25,0,0,1,4.22,1.58Z" style="fill:#263238"></path><path d="M393.22,377.27a2.25,2.25,0,1,1-1.32-2.9A2.25,2.25,0,0,1,393.22,377.27Z" style="fill:#263238"></path><path d="M384.72,370.65a2.25,2.25,0,1,1-1.32-2.9A2.27,2.27,0,0,1,384.72,370.65Z" style="fill:#263238"></path><path d="M403.47,352.53a2.25,2.25,0,1,1-1.32-2.9A2.27,2.27,0,0,1,403.47,352.53Z" style="fill:#263238"></path><path d="M410,363.93a2.25,2.25,0,1,1-1.32-2.9A2.25,2.25,0,0,1,410,363.93Z" style="fill:#263238"></path><path d="M407.93,363.64a.5.5,0,0,0,.06-1l-9.76-1.13,3.6-9.61a.51.51,0,0,0-.3-.64.49.49,0,0,0-.64.29l-4,10.8,11,1.28Z" style="fill:#263238"></path><path d="M396.63,370.8a.5.5,0,0,0,.06-1l-6.73-.93.26-8.6a.5.5,0,0,0-.49-.51.52.52,0,0,0-.51.48l-.29,9.49,7.63,1.06Z" style="fill:#263238"></path><path d="M382,377.23l9.09-.25a.49.49,0,0,0,.49-.51.52.52,0,0,0-.51-.49l-8.06.22.07-6.34a.5.5,0,0,0-.5-.5h0a.49.49,0,0,0-.5.49Z" style="fill:#263238"></path><path d="M283.93,398.56H404.17s-30.41-9.92-31.17-12.73-.73-4.76-4.44-7.21-8.79-3.95-10.2-6.63-5.78-7-7.29-8.27-19.55,7.81-19.76,8-5.23,10.05-6.94,12.25-13.51-.49-16.33,1.84-12.29,8.34-12.29,8.34S291.1,393.53,283.93,398.56Z" style="fill:#263238"></path><path d="M283.93,398.56H404.17s-30.41-9.92-31.17-12.73-.73-4.76-4.44-7.21-8.79-3.95-10.2-6.63-5.78-7-7.29-8.27-19.55,7.81-19.76,8-5.23,10.05-6.94,12.25-13.51-.49-16.33,1.84-12.29,8.34-12.29,8.34S291.1,393.53,283.93,398.56Z" style="fill:#fff;opacity:0.2"></path></g><g id="freepik--plants-1--inject-17"><path d="M228.94,399H73.74s6.7-2.71,23.86-4.24c0,0-23.56-6.24-24-16S94.44,382,94.44,382,65,358.51,70.84,346.93s25,3.28,32,17.2c0,0-22.61-51.34-.93-57.24s29.8,52.95,29.8,52.95S125,322.87,148,323s7.43,46.92,7.43,46.92,13.13-20.31,30.09-11.5-7.65,32.37-7.65,32.37S203.48,391.91,228.94,399Z" style="fill:#407BFF"></path><path d="M228.94,399H73.74s6.7-2.71,23.86-4.24c0,0-23.56-6.24-24-16S94.44,382,94.44,382,65,358.51,70.84,346.93s25,3.28,32,17.2c0,0-22.61-51.34-.93-57.24s29.8,52.95,29.8,52.95S125,322.87,148,323s7.43,46.92,7.43,46.92,13.13-20.31,30.09-11.5-7.65,32.37-7.65,32.37S203.48,391.91,228.94,399Z" style="opacity:0.1"></path><path d="M97.57,387.87s10.72-13.47,9.07-15.9S97,383.26,97,383.26s9.22-22.24,5.53-24.07S94,381.65,94,381.65s1-12.08-2-12.41-1.34,13.58-1.34,13.58-2.18-5.07-3.63-4a1,1,0,0,0-.35.76c-1,.76.82,7.95.82,7.95s-10.9-17.85-14.36-17,8.88,15.65,8.88,15.65-21.53-19.79-25.16-16.34S79,389,79,389s-13.38-6.16-15-2.88,14.94,7.18,14.94,7.18-6.7.38-6.09,2.48S85,398.24,91,395.25c0,0-.27-2.44-.73-5.4a14.81,14.81,0,0,0,2.29,2.88s10.46-5.15,11-7.24S97.57,387.87,97.57,387.87Z" style="fill:#407BFF"></path><path d="M97.57,387.87s10.72-13.47,9.07-15.9S97,383.26,97,383.26s9.22-22.24,5.53-24.07S94,381.65,94,381.65s1-12.08-2-12.41-1.34,13.58-1.34,13.58-2.18-5.07-3.63-4a1,1,0,0,0-.35.76c-1,.76.82,7.95.82,7.95s-10.9-17.85-14.36-17,8.88,15.65,8.88,15.65-21.53-19.79-25.16-16.34S79,389,79,389s-13.38-6.16-15-2.88,14.94,7.18,14.94,7.18-6.7.38-6.09,2.48S85,398.24,91,395.25c0,0-.27-2.44-.73-5.4a14.81,14.81,0,0,0,2.29,2.88s10.46-5.15,11-7.24S97.57,387.87,97.57,387.87Z" style="fill:#fff;opacity:0.2"></path><path d="M140.41,399H86.18s6.45-20.89,13.93-17.21c8.56,4.22,9.21-16.33,18.48-9.42,2.9,2.16,2.41,7.26,4.25,9.45,2.84,3.38,5.75,3.07,8.59,4.91C136.51,390.07,138.24,393.77,140.41,399Z" style="fill:#263238"></path><path d="M93,391s7.61-13.71,6.62-16.46-4.82,7.25-4.82,7.25,1.52-23.11-2.18-24.53-1.94,19.84-1.94,19.84-6.87-31.65-12.35-30.84,7.79,31.37,7.79,31.37-8.17-14.11-11.73-12.17,9,16,9,16-6.31-3.93-7.1-1.65S85.67,389.93,93,391Z" style="fill:#407BFF"></path><path d="M93,391s7.61-13.71,6.62-16.46-4.82,7.25-4.82,7.25,1.52-23.11-2.18-24.53-1.94,19.84-1.94,19.84-6.87-31.65-12.35-30.84,7.79,31.37,7.79,31.37-8.17-14.11-11.73-12.17,9,16,9,16-6.31-3.93-7.1-1.65S85.67,389.93,93,391Z" style="opacity:0.30000000000000004"></path><path d="M106.67,399H77.48s5.81-8.9,8.29-7.77c3.23,1.47,5.62-6.59,9.19-4.68,1.25.67.64,2.83,1.43,3.7,1.31,1.43,3,1.15,4.55,1.94C104,393.75,105.14,395.8,106.67,399Z" style="fill:#263238"></path><path d="M106.67,399H77.48s5.81-8.9,8.29-7.77c3.23,1.47,5.62-6.59,9.19-4.68,1.25.67.64,2.83,1.43,3.7,1.31,1.43,3,1.15,4.55,1.94C104,393.75,105.14,395.8,106.67,399Z" style="fill:#fff;opacity:0.2"></path><path d="M154.85,391.7h-.12a.68.68,0,0,1-.59-.75c.08-.62,7.82-62.63,33.19-90.62a.68.68,0,0,1,1-.05.69.69,0,0,1,0,1c-25.08,27.67-32.77,89.25-32.85,89.87A.68.68,0,0,1,154.85,391.7Z" style="fill:#263238"></path><path d="M191.39,300.57a3.57,3.57,0,1,1-3.76-3.35A3.56,3.56,0,0,1,191.39,300.57Z" style="fill:#263238"></path><path d="M181.62,329.89A3,3,0,1,1,178.4,327,3,3,0,0,1,181.62,329.89Z" style="fill:#263238"></path><path d="M167.63,321.85a3,3,0,1,1-3.21-2.87A3,3,0,0,1,167.63,321.85Z" style="fill:#263238"></path><path d="M178.2,341.14a3,3,0,1,1-3.21-2.87A3,3,0,0,1,178.2,341.14Z" style="fill:#263238"></path><path d="M164.07,337.58a3,3,0,1,1-3.21-2.86A3,3,0,0,1,164.07,337.58Z" style="fill:#263238"></path><path d="M177.37,305a3,3,0,1,1-3.21-2.87A3,3,0,0,1,177.37,305Z" style="fill:#263238"></path><path d="M174.55,320.72l-.89-15.56a.68.68,0,0,1,1.35-.08l.79,13.84L188.49,315a.68.68,0,0,1,.4,1.29Z" style="fill:#263238"></path><path d="M168.79,334.17,164,322.27a.67.67,0,0,1,.37-.88.68.68,0,0,1,.88.38l4.36,10.77,8.85-2.53a.68.68,0,0,1,.83.47.66.66,0,0,1-.46.83Z" style="fill:#263238"></path><path d="M164.34,347.19,160.41,338a.67.67,0,0,1,.36-.88.68.68,0,0,1,.89.35l3.37,7.88,9.85-4.67a.67.67,0,1,1,.57,1.22Z" style="fill:#263238"></path><path d="M191.74,315.82a3,3,0,1,1-3.21-2.86A3,3,0,0,1,191.74,315.82Z" style="fill:#263238"></path><path d="M121,399h53.77s-1.7-1.34-6.19-1.7c0,0,9.34-6.5,5.37-9.94-3.52-3.05-8.52,6.15-8.52,6.15s9.55-17.12,2.65-20.46S155.35,387,155.35,387s.51-7.62-4.81-8.31c-4.68-.62-7.48,5.05-4.22,13.35,0,0-3.68-5.26-9.66-2.54-5.37,2.45-.7,7.37-.7,7.37A81.94,81.94,0,0,0,121,399Z" style="fill:#407BFF"></path><path d="M121,399h53.77s-1.7-1.34-6.19-1.7c0,0,9.34-6.5,5.37-9.94-3.52-3.05-8.52,6.15-8.52,6.15s9.55-17.12,2.65-20.46S155.35,387,155.35,387s.51-7.62-4.81-8.31c-4.68-.62-7.48,5.05-4.22,13.35,0,0-3.68-5.26-9.66-2.54-5.37,2.45-.7,7.37-.7,7.37A81.94,81.94,0,0,0,121,399Z" style="opacity:0.30000000000000004"></path><path d="M110,385.82h.09a.51.51,0,0,0,.39-.59c-.1-.46-9.62-45.7-30-64.78a.5.5,0,0,0-.71,0,.48.48,0,0,0,0,.7C100,340,109.42,385,109.52,385.42A.5.5,0,0,0,110,385.82Z" style="fill:#263238"></path><path d="M77.48,320.88a2.64,2.64,0,1,0,2.57-2.71A2.65,2.65,0,0,0,77.48,320.88Z" style="fill:#263238"></path><path d="M86.49,341.89a2.25,2.25,0,1,0,2.19-2.31A2.24,2.24,0,0,0,86.49,341.89Z" style="fill:#263238"></path><path d="M96.31,335.1a2.25,2.25,0,1,0,2.19-2.31A2.25,2.25,0,0,0,96.31,335.1Z" style="fill:#263238"></path><path d="M89.7,350a2.25,2.25,0,1,0,2.19-2.31A2.25,2.25,0,0,0,89.7,350Z" style="fill:#263238"></path><path d="M99.9,346.49a2.25,2.25,0,1,0,2.19-2.31A2.25,2.25,0,0,0,99.9,346.49Z" style="fill:#263238"></path><path d="M88.09,323.24a2.25,2.25,0,0,0,4.5-.11,2.25,2.25,0,1,0-4.5.11Z" style="fill:#263238"></path><path d="M91.13,334.7l-.29-11.53a.52.52,0,0,0-.52-.49.5.5,0,0,0-.48.52l.26,10.25-9.59-2.12a.5.5,0,1,0-.22,1Z" style="fill:#263238"></path><path d="M96.21,344.26,99,335.19a.48.48,0,0,0-.33-.62.49.49,0,0,0-.62.33l-2.56,8.2-6.67-1.31a.5.5,0,0,0-.59.39.51.51,0,0,0,.39.59Z" style="fill:#263238"></path><path d="M100.29,353.59l2.33-7a.51.51,0,0,0-.31-.64.52.52,0,0,0-.64.32l-2,6-7.55-2.84a.5.5,0,0,0-.64.29.5.5,0,0,0,.29.65Z" style="fill:#263238"></path><path d="M78.16,332.14a2.25,2.25,0,1,0,2.19-2.31A2.24,2.24,0,0,0,78.16,332.14Z" style="fill:#263238"></path></g><g id="freepik--Splash--inject-17"><path d="M178.31,378.74c-7.31-14.64-1.88-34.86,11-40,15-5.93,17.61,20.57,37.39,23.93s29.92-9.41,35-25.71c3.16-10.15-.2-34,13.45-34,10.28,0,10.48,14.24,5.34,23.87-5.62,10.53-6.39,27.19-1.58,32.9s14.93-8.11,25.31-7.05,5.15,22.66,9.1,26.52S298,401.46,252.65,404.91C221,407.32,190.74,403.62,178.31,378.74Z" style="fill:#407BFF"></path><path d="M178.31,378.74c-7.31-14.64-1.88-34.86,11-40,15-5.93,17.61,20.57,37.39,23.93s29.92-9.41,35-25.71c3.16-10.15-.2-34,13.45-34,10.28,0,10.48,14.24,5.34,23.87-5.62,10.53-6.39,27.19-1.58,32.9s14.93-8.11,25.31-7.05,5.15,22.66,9.1,26.52S298,401.46,252.65,404.91C221,407.32,190.74,403.62,178.31,378.74Z" style="fill:#fff;opacity:0.5"></path><path d="M277.37,304.76c-1.91-3.27-7.91-.07-9.29,5.6S280.74,310.49,277.37,304.76Z" style="fill:#fff;opacity:0.2"></path><path d="M180.52,362.16c-.66-4.46.5-13.63,6-19.07,6.85-6.75,14.67-4.48,20,8,0,0-6.59-11.21-12.76-9.57-5.72,1.52-11.3,7.65-9.9,21C184.6,369.24,181.18,366.67,180.52,362.16Z" style="fill:#fff;opacity:0.2"></path><path d="M309.42,364.1s-.27-8.34-5.67-9.84-16.35,6.41-16.35,6.41,9.07-6.16,13.84-5.67,4.64,11.34,6.28,11.6S309.56,365.51,309.42,364.1Z" style="fill:#fff;opacity:0.2"></path><path d="M179.79,371.62s10.19,5.67,13.67,4.48,4.18-11.66,14.68-12.13,23.34,9.23,29,9.49,16.22-16.33,26.64-13.11,10.55,9.29,16.09,8.89,9.72-6.43,15.56-4.09S308,382.83,288.85,391,198.25,401.56,179.79,371.62Z" style="fill:#407BFF"></path><path d="M179.79,371.62s10.19,5.67,13.67,4.48,4.18-11.66,14.68-12.13,23.34,9.23,29,9.49,16.22-16.33,26.64-13.11,10.55,9.29,16.09,8.89,9.72-6.43,15.56-4.09S308,382.83,288.85,391,198.25,401.56,179.79,371.62Z" style="fill:#fff;opacity:0.4"></path><path d="M123.75,403.62s4-11.71,15.56-10,11.21,6,14.77,1.47,7.12-4.19,19.51-1.65,40.84,6.67,85.19,5.28,72.36-10.69,78.91-10.53,2.06,3.84,5.49,5.69,9.49-5.72,17.4,7.56-126.85,13.26-126.85,13.26S127.7,413.34,123.75,403.62Z" style="fill:#407BFF"></path><path d="M123.75,403.62s4-11.71,15.56-10,11.21,6,14.77,1.47,7.12-4.19,19.51-1.65,40.84,6.67,85.19,5.28,72.36-10.69,78.91-10.53,2.06,3.84,5.49,5.69,9.49-5.72,17.4,7.56-126.85,13.26-126.85,13.26S127.7,413.34,123.75,403.62Z" style="fill:#fff;opacity:0.5"></path><path d="M132.78,396c3.55-2.47,13.25.34,17.6,3s11.87,4.51,11.87,4.51-4.45,3.48-11.87-2S132.78,396,132.78,396Z" style="fill:#fff;opacity:0.2"></path><path d="M157.57,395a6.75,6.75,0,0,1,4.22-1.39,18.47,18.47,0,0,1,4.5.48,30.66,30.66,0,0,1,8.45,3.27,51,51,0,0,0,16.14,7.16A61,61,0,0,0,199.6,406a68.59,68.59,0,0,0,8.84.21c3-.14,5.94-.3,8.9-.6l8.91-.94c3-.28,6-.48,9.05-.49s6,.12,9,.39c1.51.12,3,.31,4.5.47l4.46.59,8.87,1.37A149.19,149.19,0,0,0,280,408.53a72.84,72.84,0,0,0,17.8-1.38,45.54,45.54,0,0,1-8.81,1.76q-4.47.51-9,.6a132,132,0,0,1-18-1c-11.86-1.64-23.69-3.3-35.51-1.89-5.92.6-11.93,1.3-17.95,1.44a62.88,62.88,0,0,1-18-2,48,48,0,0,1-8.52-3.18c-1.36-.66-2.69-1.4-4-2.18s-2.54-1.66-3.76-2.47a30,30,0,0,0-8.06-3.59,18.52,18.52,0,0,0-4.37-.69A6.57,6.57,0,0,0,157.57,395Z" style="fill:#fff;opacity:0.2"></path><path d="M352.23,394.66c-.62-2.07-7.8.39-9,1.78S352.91,396.93,352.23,394.66Z" style="fill:#fff;opacity:0.2"></path><path d="M338.4,389.12c1.91-1-.8,4.53-3.56,3.94s-1.59-1.35.59-1.95S337.1,389.81,338.4,389.12Z" style="fill:#fff;opacity:0.2"></path><path d="M144.67,321.9c11.14-11.18,20.1,19.28,27.47,33.1,9.62,18,22.36,29.85,32.6,24.22S206,340,219.21,337.55s6.85,33.66,23.21,37,21.09-28.63,32.7-28,5.8,22.55,11.6,28,43.78-30.84,46.42-57,19.52-17.29,17.41-5.39-24.79,33.15-30.6,50.22,25.32.16,37.45,6.51-36.55,36.08-103.19,36.08S145.36,389.6,141.14,379.22s29.64,5.24,31.12-2.46C175.36,360.6,134.56,332.05,144.67,321.9Z" style="fill:#407BFF"></path><path d="M322,394.32a219,219,0,0,1-67.79,10.59c-35,0-63.31-4.23-82.87-9.75-17.65-5-28.2-11-30.2-15.94-4.22-10.37,29.64,5.24,31.12-2.46,3.1-16.16-37.7-44.71-27.59-54.86,11.14-11.18,20.1,19.28,27.47,33.1,9.62,18,22.36,29.85,32.6,24.22S206,340,219.21,337.55s6.85,33.66,23.21,37,21.09-28.63,32.7-28,5.8,22.55,11.6,28,43.78-30.84,46.42-57,19.52-17.29,17.41-5.39-24.79,33.15-30.6,50.22,25.32.16,37.45,6.51C364.76,372.68,349.78,385.11,322,394.32Z" style="fill:#fff;opacity:0.6000000000000001"></path><path d="M148.8,383.62a17.26,17.26,0,0,1-1.38-1.89,4.74,4.74,0,0,1-.49-1.07,1.2,1.2,0,0,1,.19-1.19,1.91,1.91,0,0,1,1.13-.48,6.67,6.67,0,0,1,1.18-.06,20.17,20.17,0,0,1,2.34.25,87.22,87.22,0,0,1,9.08,2.25c2.92.89,6,1.57,8.89.86,4.15-1,4.95-4.79,6.12-8.29.37-1.09,1.35-2.19,2.49-2a2.87,2.87,0,0,1,1.32.77c2,1.69,3.43,3.82,5.62,5.15a81.31,81.31,0,0,0,8.12,4.63,20.55,20.55,0,0,0,8.58,2,18.72,18.72,0,0,0,4.36-.53,9.15,9.15,0,0,0,3.69-1.83c2.15-1.76,3.39-4.51,4.28-7.36.45-1.43.83-2.92,1.23-4.43a29.13,29.13,0,0,1,1.53-4.63,7.66,7.66,0,0,1,1.56-2.31,4.65,4.65,0,0,1,2.89-1.32,5.1,5.1,0,0,1,3,.7,8.79,8.79,0,0,1,2.1,1.77,26.27,26.27,0,0,1,2.8,4.05l2.31,4.06a40,40,0,0,0,5.1,7.37,12.59,12.59,0,0,0,7.11,4.11,10.47,10.47,0,0,0,7.74-2,36.86,36.86,0,0,0,6.57-6c2.07-2.27,4.05-4.67,6.42-6.91a15.08,15.08,0,0,1,4.24-2.94,7,7,0,0,1,2.88-.56A4.7,4.7,0,0,1,274.9,367a5.64,5.64,0,0,1,1.51,2.7,14.56,14.56,0,0,1,.41,2.57c.12,1.64.11,3.2.16,4.72a19.16,19.16,0,0,0,.51,4.28,4.26,4.26,0,0,0,1.92,2.81c1.92,1.2,4.84-.08,7.38-1.52a66,66,0,0,0,7.44-5.25c2.41-1.91,4.77-3.91,7.17-5.9a82.17,82.17,0,0,1,7.52-5.73,16.17,16.17,0,0,1,2.22-1.2,6.48,6.48,0,0,1,1.37-.41,2.93,2.93,0,0,1,1.84.21,3.93,3.93,0,0,1,2,2.41,6.19,6.19,0,0,1,0,2.81c-.33,1.65-.88,3.1-1,4.44a2.87,2.87,0,0,0,.25,1.66,2.12,2.12,0,0,0,1.21.93,12.32,12.32,0,0,0,4.24,0c1.5-.2,3-.48,4.53-.79,3-.62,6-1.34,9.07-2s6.09-1.31,9.18-1.8c1.54-.24,3.1-.44,4.67-.54a18.58,18.58,0,0,1,4.76.19,6.35,6.35,0,0,1,2.3.87,1.81,1.81,0,0,1,.79,1.16,2,2,0,0,1-.31,1.32,11.83,11.83,0,0,1-3.55,3.16,61.37,61.37,0,0,1-8.3,4.27,61.56,61.56,0,0,0,8-4.65,11.52,11.52,0,0,0,3.27-3.09,1.46,1.46,0,0,0,.2-.9,1.14,1.14,0,0,0-.54-.68,5.46,5.46,0,0,0-2.05-.68,18.07,18.07,0,0,0-4.53,0c-6.79.71-13.4,3.33-19.6,6.11-4.76,2.14-10.08,4-15.11,2.6a4.49,4.49,0,0,1-1.76-.84c-1.58-1.39-1.12-4.2-2.72-5.56s-3.69-.52-5.42.31c-5.73,2.78-10.44,6.78-15.84,10a19.9,19.9,0,0,1-4.55,2.08,8.61,8.61,0,0,1-2.74.37,7,7,0,0,1-2.84-.79,6.08,6.08,0,0,1-2.2-2c-1.47-2.17-1.69-5-3.22-7.27a4,4,0,0,0-.86-1,3.52,3.52,0,0,0-1.79-.61c-3.43-.37-6.73,1.42-9.46,3.55-3.73,2.92-7.07,6.37-11.8,7.65a12.07,12.07,0,0,1-5.25.26,14.07,14.07,0,0,1-4.83-1.82c0-.47-3.78-2.87-4.33-3.35-1.62-1.44-3.07-3.11-4.58-4.68a12.22,12.22,0,0,0-1.39-1.3c-2.8-2.1-5.61-1.11-7.67,1.31-1.25,1.47-2.26,3.14-3.55,4.58-6.43,7.16-16.62,6.21-24.5,2.41-5.59-2.7-14.15-12.49-17.19-2.17-.41,1.42-1,2.92-2.37,3.58a5.69,5.69,0,0,1-3.63.13,55.53,55.53,0,0,1-9.37-2.84l-2.48-.92c-2.57-1-5.4-2.64-8.15-2.79a3.08,3.08,0,0,0-2.14.36,1,1,0,0,0-.19,1,4.62,4.62,0,0,0,.43,1.06A17.56,17.56,0,0,0,148.8,383.62Z" style="fill:#fff;opacity:0.2"></path><path d="M153.15,341.55s-10.88-13.07-7.51-18,10.09-.58,11.67,4.76-4.41,4.67-6.16,4.41S153.15,341.55,153.15,341.55Z" style="fill:#fff;opacity:0.2"></path><path d="M222.19,340c-1.1-3.68-6.93.79-7.32,5.34S224.36,347.29,222.19,340Z" style="fill:#fff;opacity:0.2"></path><path d="M218.68,352.7c-.29-1.67,3.59-2.5,4.84,0S219.58,357.88,218.68,352.7Z" style="fill:#fff;opacity:0.2"></path><path d="M342.45,302c3.91-1.05,5.74,4.94,2,9.69s-5.74-6.16-6.33-4.86-3.36,6.44-3.36,11C334.74,317.81,334.34,304.16,342.45,302Z" style="fill:#fff;opacity:0.2"></path><path d="M322,394.32a219,219,0,0,1-67.79,10.59c-35,0-63.31-4.23-82.87-9.75,3.19.39,6.69.43,9.11-.6,5.54-2.37,9.5-2,14.64,1.58s14.24,6.09,24.53,5.32,7.91-5.12,20-3.14,10.54,5.33,24.76,5.3,22-6.47,30.68-8.26C302.39,393.84,305.35,398.77,322,394.32Z" style="fill:#407BFF"></path><path d="M322,394.32a219,219,0,0,1-67.79,10.59c-35,0-63.31-4.23-82.87-9.75,3.19.39,6.69.43,9.11-.6,5.54-2.37,9.5-2,14.64,1.58s14.24,6.09,24.53,5.32,7.91-5.12,20-3.14,10.54,5.33,24.76,5.3,22-6.47,30.68-8.26C302.39,393.84,305.35,398.77,322,394.32Z" style="fill:#fff;opacity:0.5"></path><path d="M376.18,402.83a5.82,5.82,0,0,1-4.21-7c.6-2.3.23-4.33-5.32-4.68s-9.82,3.1-13.9,5.89c-3.38,2.32-6.68,4.18-10.63,3-6-1.75-7.63-5.87-12.65-7.9a17.35,17.35,0,0,0-6.26-1.15,33.81,33.81,0,0,0-3.51.13c-14.15,1.25-27.95,17-50.37,19.11s-49.85-1.84-70.68-6.37S171,403.92,162,406c-6.39,1.5-19.28-1.67-29.64-5.25a112.92,112.92,0,0,1-10.71-4.24c-9.64-4.52-13.45-1.32-13.92,1.95s6.9,6.77-3.18,10.05l-.17.06-.7.21C89.52,413.12,81,416.24,81,416.24H420.19S402.69,409.9,376.18,402.83Z" style="fill:#407BFF"></path><path d="M376.18,402.83a5.82,5.82,0,0,1-4.21-7c.6-2.3.23-4.33-5.32-4.68s-9.82,3.1-13.9,5.89c-3.38,2.32-6.68,4.18-10.63,3-6-1.75-7.63-5.87-12.65-7.9a17.35,17.35,0,0,0-6.26-1.15,33.81,33.81,0,0,0-3.51.13c-14.15,1.25-27.95,17-50.37,19.11s-49.85-1.84-70.68-6.37S171,403.92,162,406c-6.39,1.5-19.28-1.67-29.64-5.25a112.92,112.92,0,0,1-10.71-4.24c-9.64-4.52-13.45-1.32-13.92,1.95s6.9,6.77-3.18,10.05l-.17.06-.7.21C89.52,413.12,81,416.24,81,416.24H420.19S402.69,409.9,376.18,402.83Z" style="fill:#fff;opacity:0.7000000000000001"></path><path d="M109.9,399.57a2.41,2.41,0,0,1,.54-1.87,3,3,0,0,1,1.87-.83,12,12,0,0,1,4,.39,37.18,37.18,0,0,1,7.28,2.84c2.26,1.06,4.63,2,7,2.85s4.77,1.7,7.19,2.45c4.82,1.43,9.74,2.86,14.54,3.25a51.52,51.52,0,0,0,7.35,0,43,43,0,0,0,7.22-1.26c4.82-1.22,9.9-2.87,15.25-3.31a71.91,71.91,0,0,1,15.68,1c10.21,1.54,20.13,4.08,30.13,6.3-5.13-.26-10.22-1-15.3-1.56s-10.15-1.25-15.2-1.74c-2.53-.24-5-.4-7.56-.51a48.82,48.82,0,0,0-7.38.16,67.37,67.37,0,0,0-7.25,1.45c-2.42.62-4.84,1.39-7.39,2a45.35,45.35,0,0,1-7.9,1.28,46.13,46.13,0,0,1-8-.17,50.48,50.48,0,0,1-7.81-1.59c-2.52-.69-5-1.51-7.41-2.41A97.86,97.86,0,0,1,122.56,402c-1.16-.65-2.15-1.32-3.27-1.92a29.15,29.15,0,0,0-3.39-1.61,11,11,0,0,0-3.55-.91,2.77,2.77,0,0,0-1.68.4A2.26,2.26,0,0,0,109.9,399.57Z" style="fill:#fff;opacity:0.5"></path><path d="M266.16,413.15a71.13,71.13,0,0,0,13.61-2.77c2.21-.64,4.41-1.34,6.57-2.13,1.09-.38,2.17-.76,3.24-1.19s2.14-.83,3.2-1.29a120.43,120.43,0,0,0,12.37-6c4-2.25,8.47-4.66,13.47-5.47a20.47,20.47,0,0,1,7.68.1,18.14,18.14,0,0,1,7,3.2c.51.37,1,.77,1.48,1.18l1.29,1.12a15.72,15.72,0,0,0,2.6,1.74,11.57,11.57,0,0,0,2.89,1.13,10.58,10.58,0,0,0,3.07.36,11.39,11.39,0,0,0,6-1.81c.87-.57,1.86-1.32,2.81-2s2-1.35,3-2a28.75,28.75,0,0,1,6.44-3,14.87,14.87,0,0,1,3.49-.68,7,7,0,0,1,3.47.52,7,7,0,0,0-3.42-.09,16.29,16.29,0,0,0-3.27,1,30.51,30.51,0,0,0-5.89,3.5c-.92.68-1.82,1.39-2.69,2.13s-1.69,1.5-2.68,2.33a13.71,13.71,0,0,1-7,2.87,14,14,0,0,1-3.88-.16,14.92,14.92,0,0,1-3.69-1.15,16.22,16.22,0,0,1-3.31-2l-1.4-1.12c-.43-.33-.86-.64-1.3-.94a15.65,15.65,0,0,0-11.93-2.36,31.38,31.38,0,0,0-6.22,1.92c-1,.43-2,.91-3,1.42L307,403.18a97.39,97.39,0,0,1-13,5.61c-1.12.39-2.25.76-3.38,1.09s-2.27.67-3.41,1c-2.28.59-4.59,1.08-6.91,1.52A51.56,51.56,0,0,1,266.16,413.15Z" style="fill:#fff;opacity:0.5"></path><path d="M390.58,409.73c-3.26-1-6.52-2.05-9.84-2.76a31.77,31.77,0,0,0-5-.79c-.41,0-.81,0-1.21,0a11.47,11.47,0,0,0-1.16.14,4,4,0,0,0-1.93.75,4.26,4.26,0,0,0-.52.93,3.92,3.92,0,0,1-1,1.22,9.49,9.49,0,0,1-2.48,1.36,12.93,12.93,0,0,1-5.39.91c-1.84-.1-3.49-.53-5.11-.66a15,15,0,0,0-2.4-.06,11.23,11.23,0,0,0-2.3.44c-3.14.89-6.18,2.52-9.52,3.64a20.08,20.08,0,0,1-2.62.66,9.26,9.26,0,0,1-2.83,0,16.77,16.77,0,0,1-5-1.84c-1.54-.78-3-1.6-4.55-2.21a9.73,9.73,0,0,0-4.74-.79c-3.27.35-6.36,2.07-9.11,4.05a21.21,21.21,0,0,1,4.11-3.1,15.3,15.3,0,0,1,4.87-1.92,10.68,10.68,0,0,1,5.32.53,51.38,51.38,0,0,1,4.77,2,16.53,16.53,0,0,0,4.6,1.51,9.91,9.91,0,0,0,4.6-.75c3.13-1.09,6.15-2.74,9.58-3.77a14.16,14.16,0,0,1,2.73-.48,16.16,16.16,0,0,1,2.71.09c1.78.17,3.47.59,5,.71a11,11,0,0,0,4.66-.66,8.19,8.19,0,0,0,2-1,2.24,2.24,0,0,0,.65-.72,5.08,5.08,0,0,1,.83-1.24,5.2,5.2,0,0,1,2.78-1.07,12.81,12.81,0,0,1,1.39-.1c.45,0,.91,0,1.35.11A31.61,31.61,0,0,1,381,406,78.82,78.82,0,0,1,390.58,409.73Z" style="fill:#fff;opacity:0.5"></path><path d="M229,310.1c7.63-.16,17.12,10,13.76,18.66-2.14,5.52-9.68,4.21-13.88,2.3C220.84,327.41,216.48,310.36,229,310.1Z" style="fill:#407BFF"></path><path d="M229.24,280.49c5.68,0,4,10.29-2.37,8.71S224.23,280.49,229.24,280.49Z" style="fill:#407BFF"></path><path d="M315.48,290.52c-3.3-3.3,3.43-11.18,7.12-5.59S320.49,295.53,315.48,290.52Z" style="fill:#407BFF"></path><path d="M101.33,356.45c1.94-6.08,12.66,3.43,11.6,6.07S99.48,362.25,101.33,356.45Z" style="fill:#407BFF"></path><path d="M398,346.69c5.94,4.89-14,13.49-15.82,12.29S393.55,343,398,346.69Z" style="fill:#407BFF"></path><path d="M173.86,316.89c3.43-4,6.56,6.07,1.17,6.59S170.43,320.85,173.86,316.89Z" style="fill:#407BFF"></path><path d="M229,310.1c7.63-.16,17.12,10,13.76,18.66-2.14,5.52-9.68,4.21-13.88,2.3C220.84,327.41,216.48,310.36,229,310.1Z" style="fill:#fff;opacity:0.7000000000000001"></path><path d="M101.33,356.45c1.94-6.08,12.66,3.43,11.6,6.07S99.48,362.25,101.33,356.45Z" style="fill:#fff;opacity:0.7000000000000001"></path><path d="M398,346.69c5.94,4.89-14,13.49-15.82,12.29S393.55,343,398,346.69Z" style="fill:#fff;opacity:0.7000000000000001"></path><path d="M315.48,290.52c-3.3-3.3,3.43-11.18,7.12-5.59S320.49,295.53,315.48,290.52Z" style="fill:#fff;opacity:0.6000000000000001"></path><path d="M173.86,316.89c3.43-4,6.56,6.07,1.17,6.59S170.43,320.85,173.86,316.89Z" style="fill:#fff;opacity:0.6000000000000001"></path><path d="M229.24,280.49c5.68,0,4,10.29-2.37,8.71S224.23,280.49,229.24,280.49Z" style="fill:#fff;opacity:0.5"></path><path d="M225.15,312.74c2.76-3.73,11.48,1.91,11.48,5.07S221,318.34,225.15,312.74Z" style="fill:#fff;opacity:0.2"></path><path d="M230.53,329.29c-2.72-1.67,8-4.35,10.12-2.44S238.31,334,230.53,329.29Z" style="fill:#fff;opacity:0.2"></path><path d="M225.55,286.69c-.7-1.49,5.33-2.14,5,0S226.6,288.93,225.55,286.69Z" style="fill:#fff;opacity:0.2"></path><path d="M318.25,284.93c.77-2.95,5.15,1.3,4.09,2.85S317.77,286.79,318.25,284.93Z" style="fill:#fff;opacity:0.2"></path><path d="M175,316.89c1.76-.26-.91,3.69-1.7,3.43S173.26,317.15,175,316.89Z" style="fill:#fff;opacity:0.2"></path><path d="M103.18,355.66c1.65-1.31,2.75,3.21.52,3.32S101.74,356.8,103.18,355.66Z" style="fill:#fff;opacity:0.2"></path><path d="M385.37,355.53c-.28,1.18,11.46-6.74,10.29-7.91S386.17,352.27,385.37,355.53Z" style="fill:#fff;opacity:0.2"></path></g><g id="freepik--Drop--inject-17"><path d="M250,119.75S156.48,245,226.62,277.35a55.92,55.92,0,0,0,46.76,0C343.52,245,250,119.75,250,119.75Z" style="fill:#407BFF"></path><path d="M250,119.75S156.48,245,226.62,277.35a55.92,55.92,0,0,0,46.76,0C343.52,245,250,119.75,250,119.75Z" style="fill:#fff;opacity:0.6000000000000001"></path><path d="M250,121.09s45.42,58.21,41.47,111.3-54.1,47.84-72.84,30.86C172.84,221.79,250,121.09,250,121.09Z" style="fill:#407BFF"></path><path d="M250,121.09s-77.16,100.7-31.37,142.16c18.74,17,68.88,22.24,72.84-30.86S250,121.09,250,121.09Z" style="fill:#fff;opacity:0.7000000000000001"></path><path d="M250,123.9s37.72,73.22,29.23,112.31S217.32,270,208.93,238C197.37,193.79,250,123.9,250,123.9Z" style="fill:#407BFF"></path><path d="M249.44,267.27c16.71,0,27.43-4.74,29.38-3,2.73,2.46-9,16.16-29.38,16.16-18.22,0-31.16-13.55-29.69-16.82S233.26,267.27,249.44,267.27Z" style="fill:#407BFF"></path><path d="M250,123.9s37.72,73.22,29.23,112.31S217.32,270,208.93,238C197.37,193.79,250,123.9,250,123.9Z" style="fill:#fff;opacity:0.8"></path><path d="M249.44,267.27c16.71,0,27.43-4.74,29.38-3,2.73,2.46-9,16.16-29.38,16.16-18.22,0-31.16-13.55-29.69-16.82S233.26,267.27,249.44,267.27Z" style="fill:#fff;opacity:0.8"></path><path d="M242.07,225.77c29.33-2.71,33.21,30.74,2.66,33.56S218.18,228,242.07,225.77Z" style="fill:#fff;opacity:0.5"></path><path d="M236,224.05c11.19.53,14.33-19,0-15.08C225.68,211.79,227.4,223.65,236,224.05Z" style="fill:#fff;opacity:0.4"></path><path d="M248.22,268.64c8.16.62,13.59-1.19,14,1.06s-4,8.3-16.49,5.9C235.19,273.57,234.23,267.59,248.22,268.64Z" style="fill:#fff;opacity:0.5"></path></g></svg>